<svg fill="none" viewBox="0 0 119 48" xmlns="http://www.w3.org/2000/svg"><path d="m34.083 31.768 6.573 15.21a.22.22 0 0 0 .204.144h4.998c.16 0 .277-.173.204-.317L26.49 1.521a.219.219 0 0 0-.204-.144h-5.61a.219.219 0 0 0-.204.144L.9 46.805c-.059.144.043.317.204.317h4.998a.22.22 0 0 0 .204-.144l6.383-14.75-1.005.404h23.9l-1.5-.864Zm-.801-4.12h-19.34l.423.663 9.007-20.87h.204l9.137 21.144.569-.936ZM87.057 22.665H61.685c-.131 0-.233.1-.233.23v4.523c0 .13.102.23.233.23h20.927l-.32-.417c0 3.788-3.76 15.555-17.343 15.555-11.308 0-18.1-8.642-18.1-18.782 0-9.837 7.141-18.191 18.334-18.191 7.636 0 12.518 3.385 15.01 8.31.044.073.117.13.204.13h5.144c.16 0 .263-.158.22-.302C83.66 7.844 77.365.873 65.036.873c-13.83 0-23.332 10.284-23.332 23.203 0 12.95 8.773 23.665 23.244 23.665 12.942 0 22.545-9.204 22.545-23.434 0-.403 0-.907-.058-1.239-.044-.216-.117-.403-.379-.403ZM101.048 1.362h-4.372c-.132 0-.219.101-.234.23-.364 5.416-4.459 7.562-7.87 7.562-.13 0-.232.101-.232.231v4.537c0 .13.102.23.233.23 3.104-.043 6.82-1.483 8.19-3.255l-.554-.533v36.542c0 .13.102.23.233.23h4.591c.131 0 .233-.1.233-.23V1.622c.015-.159-.087-.26-.218-.26ZM111.817 7.714c.627-.158 1.166-.677 1.166-1.541 0-.965-.772-1.656-2.113-1.656h-2.259v5.804h1.108V8.09h.728c.729 0 .991.36 1.181.907.175.475.306.994.495 1.34h1.122v-.044c-.204-.374-.335-.806-.495-1.34-.204-.633-.394-1.08-.933-1.238Zm-1.005-.49h-1.108v-1.8h1.078c.773 0 1.108.374 1.108.864 0 .562-.393.936-1.078.936Z" fill="#0F2E2F"></path><path d="M110.695.873c-3.731 0-6.747 2.981-6.747 6.668 0 3.688 3.016 6.67 6.747 6.67s6.748-2.982 6.748-6.67c0-3.687-3.017-6.668-6.748-6.668Zm0 12.214c-3.089 0-5.611-2.492-5.611-5.546 0-3.053 2.522-5.545 5.611-5.545 3.09 0 5.611 2.492 5.611 5.545 0 3.054-2.507 5.546-5.611 5.546Z" fill="#0F2E2F"></path></svg>