<svg xmlns="http://www.w3.org/2000/svg" fill="none" viewBox="0 0 227 93" height="93" width="227">
<g clip-path="url(#clip0_29_103)">
<path fill="white" d="M217.727 8.3208V1.68399H215.944V0.212769H220.904V1.68369H219.122V8.3205H217.727V8.3208Z"></path>
<path fill="white" d="M222.031 8.32061V0.212577H223.887L224.34 3.21231C224.414 3.72201 224.488 4.62534 224.506 5.01927H224.571C224.589 4.62534 224.626 3.74517 224.709 3.22389L225.18 0.21228H227V8.32002H225.864V3.79177C225.864 3.36311 225.882 2.57555 225.891 1.73011H225.808C225.744 2.45978 225.651 3.37499 225.596 3.75704L225.162 6.75707H223.915L223.462 3.8265C223.388 3.37469 223.296 2.4482 223.222 1.73011H223.139C223.148 2.57555 223.166 3.4213 223.166 3.84966V8.32061H222.03H222.031Z"></path>
<path fill="white" d="M0 90.5164C0 89.6473 0.496903 89.2747 1.61486 89.0265L4.47213 88.5299C7.45384 88.0333 8.69595 86.6674 8.69595 83.6876V10.6782C8.69595 7.20168 7.95045 6.45657 4.47213 5.83585L1.61486 5.33921C0.496903 5.09074 0 4.71818 0 3.84899C0 2.97979 0.621054 2.48315 1.86346 2.48315H26.9581C46.3382 2.48315 58.5128 20.7354 58.5128 47.5551C58.5128 74.3749 45.7172 91.8823 25.7157 91.8823H1.86346C0.621054 91.8823 0 91.3856 0 90.5164ZM48.823 47.5551C48.823 21.1079 41.3689 5.71147 26.9584 5.71147C20.8711 5.71147 17.5166 8.81569 17.5166 14.7757V79.5901C17.5166 86.1708 20.0015 88.6543 26.2129 88.6543C40.8723 88.6543 48.823 74.2511 48.823 47.5554V47.5551Z"></path>
<path fill="white" d="M61.4947 80.9559C61.4947 70.4018 72.3027 60.8412 87.3349 55.9986C88.4528 55.626 88.9497 54.8812 88.9497 53.8876V42.5887C88.9497 34.6422 86.2166 31.5379 81.9928 31.5379C77.769 31.5379 74.1662 35.0147 72.6755 43.7061C71.8058 49.0453 68.5758 51.2801 65.8427 51.2801C63.731 51.2801 62.3641 50.0383 62.3641 47.8036C62.3641 38.1186 74.539 27.813 85.0984 27.813C93.0491 27.813 97.3971 32.4071 97.3971 42.0921V80.0867C97.3971 83.6876 98.3909 85.3016 100.006 85.3016C102.118 85.3016 104.354 82.694 104.354 75.7407C104.354 74.3749 105.1 73.7542 105.969 73.7542C106.838 73.7542 107.46 74.3749 107.46 75.8651C107.46 87.9092 102.49 92.9999 97.1485 92.9999C93.173 92.9999 90.8126 89.275 90.0674 84.8049C89.8191 83.1906 88.3281 83.0665 87.2101 84.6808C83.2346 90.1442 79.5077 92.9999 73.4204 92.9999C66.4635 92.9999 61.4941 88.2817 61.4941 80.9559H61.4947ZM88.9497 70.1536V61.0894C88.9497 59.7235 87.9559 59.1028 86.3411 59.7235C76.2783 63.4485 70.4396 69.781 70.4396 78.7209C70.4396 84.3083 72.6758 87.2881 76.7755 87.2881C83.1111 87.2881 88.95 79.8382 88.95 70.1533L88.9497 70.1536Z"></path>
<path fill="white" d="M120.875 91.6342L104.353 36.8773C103.11 32.9039 102.365 32.2832 100.129 31.7865L98.2652 31.414C97.147 31.1655 96.6504 30.6689 96.6504 29.7997C96.6504 29.0546 97.2714 28.5579 98.3894 28.5579H118.888C120.006 28.5579 120.627 29.0546 120.627 29.7997C120.627 30.6689 120.006 31.2896 119.012 31.414L117.024 31.6624C113.049 32.1591 112.304 33.2764 113.297 36.8773L123.608 72.761C124.105 74.6235 125.596 74.6235 126.093 72.761L136.156 39.112C137.522 34.642 137.274 32.6554 133.174 31.9103L130.565 31.4137C129.572 31.1652 128.95 30.6686 128.95 29.7994C128.95 29.0543 129.571 28.5576 130.69 28.5576H146.467C147.709 28.5576 148.206 29.1783 148.206 29.9235C148.206 30.6686 147.833 31.2893 146.716 31.6618L145.598 32.0344C143.113 32.9036 141.498 34.642 139.883 39.8569L124.106 91.6339C123.733 92.7513 123.112 92.9998 122.491 92.9998C121.87 92.9998 121.248 92.7513 120.876 91.6339L120.875 91.6342Z"></path>
<path fill="white" d="M146.59 90.5165C146.59 89.7714 147.087 89.2748 148.205 89.0266L149.696 88.7781C153.796 88.1574 154.541 87.0397 154.541 83.5633V41.8437C154.541 38.8635 153.796 38.1187 151.435 37.7462L148.827 37.3736C147.584 37.2495 147.211 36.7529 147.211 36.0078C147.211 35.2627 147.833 34.8901 149.199 34.642C154.293 33.8968 157.026 32.0344 160.007 29.303C160.753 28.5579 161.25 28.1856 161.871 28.1856C162.616 28.1856 162.989 28.6823 162.989 29.6755V83.5633C162.989 87.0397 163.734 88.2815 166.591 88.654L169.697 89.0266C170.567 89.1507 171.063 89.6473 171.063 90.3924C171.063 91.3857 170.442 91.8824 169.2 91.8824H148.453C147.211 91.8824 146.59 91.3857 146.59 90.5165H146.59ZM152.677 10.1816C152.677 6.33256 155.411 3.72498 158.889 3.72498C162.367 3.72498 164.976 6.33256 164.976 10.1816C164.976 14.0306 162.367 16.7623 158.889 16.7623C155.41 16.7623 152.677 14.0306 152.677 10.1816Z"></path>
<path fill="white" d="M168.702 62.9519C168.702 42.2162 179.262 27.813 193.797 27.813C196.157 27.813 198.394 28.1856 200.63 29.1789C201.872 29.7996 202.617 29.5514 202.617 28.3097V12.4166C202.617 9.43676 201.872 8.56757 199.512 8.3191L196.282 7.94654C195.412 7.82246 194.915 7.20143 194.915 6.45662C194.915 5.71181 195.412 5.09079 196.282 4.9667C201.499 3.97342 204.605 2.60758 206.717 1.24175C208.084 0.372555 208.953 0 209.699 0C210.568 0 211.065 0.620726 211.065 1.98656V80.0865C211.065 83.6873 212.059 85.3013 213.674 85.3013C215.786 85.3013 218.022 82.6937 218.022 75.7405C218.022 74.3746 218.767 73.7539 219.637 73.7539C220.507 73.7539 221.128 74.3746 221.128 75.8649C221.128 87.9089 216.158 92.9997 210.941 92.9997C206.096 92.9997 203.735 89.2747 202.99 84.8047C202.741 83.5629 201.623 83.4389 200.754 84.6806C196.157 91.1372 192.927 92.9997 187.461 92.9997C176.404 92.9997 168.702 80.9557 168.702 62.9516L168.702 62.9519ZM202.617 70.8985V42.9613C202.617 35.5114 198.891 30.9173 193.424 30.9173C184.107 30.9173 177.895 42.5888 177.895 61.2135C177.895 78.2243 182.492 87.2882 190.194 87.2882C196.53 87.2882 202.617 80.0865 202.617 70.8985Z"></path>
</g>
<defs>
<clipPath id="clip0_29_103">
<rect fill="white" height="93" width="227"></rect>
</clipPath>
</defs>
</svg>
