<?xml version="1.0" encoding="UTF-8" standalone="no"?>
<!-- Created with Inkscape (http://www.inkscape.org/) -->

<svg
   xmlns:dc="http://purl.org/dc/elements/1.1/"
   xmlns:cc="http://creativecommons.org/ns#"
   xmlns:rdf="http://www.w3.org/1999/02/22-rdf-syntax-ns#"
   xmlns:svg="http://www.w3.org/2000/svg"
   xmlns="http://www.w3.org/2000/svg"
   xmlns:xlink="http://www.w3.org/1999/xlink"
   xmlns:sodipodi="http://sodipodi.sourceforge.net/DTD/sodipodi-0.dtd"
   xmlns:inkscape="http://www.inkscape.org/namespaces/inkscape"
   width="169.33333mm"
   height="41.010418mm"
   viewBox="0 0 169.33333 41.010418"
   version="1.1"
   id="svg8"
   inkscape:version="0.92.5 (2060ec1f9f, 2020-04-08)"
   sodipodi:docname="dsc logo.svg">
  <defs
     id="defs2">
    <linearGradient
       gradientUnits="userSpaceOnUse"
       y2="5.112"
       x2="4.7909899"
       y1="43.007"
       x1="40.129002"
       id="paint0_linear">
      <stop
         id="stop821"
         stop-color="#515254" />
      <stop
         id="stop823"
         stop-color="#48494B"
         offset="0.192" />
      <stop
         id="stop825"
         stop-color="#313233"
         offset="0.503" />
      <stop
         id="stop827"
         stop-color="#0C0C0C"
         offset="0.893" />
      <stop
         id="stop829"
         offset="1" />
    </linearGradient>
    <style
       id="style851">.cls-1{fill:#231f20;}.cls-2{fill:#0080c5;}</style>
    <linearGradient
       id="linear-gradient"
       x1="0.036169"
       y1="36.132832"
       x2="36.132832"
       y2="0.036169"
       gradientUnits="userSpaceOnUse">
      <stop
         id="stop874"
         offset="0"
         stop-color="#0074f5" />
      <stop
         id="stop876"
         offset="1"
         stop-color="#03aaff" />
    </linearGradient>
    <polygon
       points="24.218,0.539 24.218,17 0.792,17 0.792,0.539 "
       id="vector-svg@1x-a" />
    <polygon
       points="1.104,0 1.104,1.319 0,1.319 0,0 "
       id="vector-svg@1x-c" />
    <polygon
       points="1.701,0 1.701,1.319 0.306,1.319 0.306,0 "
       id="vector-svg@1x-e" />
  </defs>
  <sodipodi:namedview
     id="base"
     pagecolor="#ffffff"
     bordercolor="#666666"
     borderopacity="1.0"
     inkscape:pageopacity="0.0"
     inkscape:pageshadow="2"
     inkscape:zoom="0.84107037"
     inkscape:cx="204.97681"
     inkscape:cy="-46.922872"
     inkscape:document-units="mm"
     inkscape:current-layer="layer1"
     showgrid="false"
     fit-margin-top="0"
     fit-margin-left="0"
     fit-margin-right="0"
     fit-margin-bottom="0"
     inkscape:window-width="1920"
     inkscape:window-height="1017"
     inkscape:window-x="1912"
     inkscape:window-y="70"
     inkscape:window-maximized="1"
     inkscape:pagecheckerboard="true" />
  <metadata
     id="metadata5">
    <rdf:RDF>
      <cc:Work
         rdf:about="">
        <dc:format>image/svg+xml</dc:format>
        <dc:type
           rdf:resource="http://purl.org/dc/dcmitype/StillImage" />
        <dc:title></dc:title>
      </cc:Work>
    </rdf:RDF>
  </metadata>
  <g
     inkscape:label="Layer 1"
     inkscape:groupmode="layer"
     id="layer1"
     transform="translate(8.4495727,-97.841232)">
    <g
       id="g1186"
       transform="matrix(0.73490713,0,0,0.73232625,-8.4495727,97.841232)"
       style="fill:none;fill-rule:evenodd">
      <path
         id="path1141"
         d="m 58.9056,24.8268 c 2.308,0 3.918,1.862 3.918,4.074 0,2.23 -1.61,4.073 -3.918,4.073 -2.308,0 -3.937,-1.843 -3.937,-4.073 0,-2.25 1.629,-4.074 3.937,-4.074 m -0.039,11.056 c 3.919,0 7.1,-2.948 7.1,-6.982 0,-4.034 -3.007,-6.983 -7.021,-6.983 -3.9,0 -7.119,2.967 -7.119,6.983 0,4.053 3.045,6.982 7.04,6.982"
         inkscape:connector-curvature="0"
         style="fill:#ff595a" />
      <polygon
         id="polygon1143"
         points="70.732,22.111 67.609,22.111 67.609,35.688 75.968,35.688 75.968,32.993 70.732,32.993 "
         style="fill:#ff595a" />
      <polygon
         id="polygon1145"
         points="80.732,22.111 77.61,22.111 77.61,35.688 84.805,35.688 85.818,32.993 80.732,32.993 "
         style="fill:#ff595a" />
      <path
         id="path1147"
         d="m 43.5126,22.1115 h -4.439 v 13.577 h 4.439 c 4.317,0 7.083,-2.828 7.083,-6.787 0,-3.979 -2.766,-6.79 -7.083,-6.79 m -0.159,10.692 h -1.237 v -7.807 h 1.237 c 2.745,0 4.357,1.577 4.357,3.905 0,2.308 -1.612,3.902 -4.357,3.902 m 62.8543,-4.4889 h -2.064 v -3.468 h 2.064 c 1.364,0 2.044,0.702 2.044,1.723 0,1.023 -0.68,1.745 -2.044,1.745 z m 1.912,1.963 c 1.823,-0.563 3.065,-2.037 3.065,-3.977 0,-2.385 -1.591,-4.189 -4.694,-4.189 h -5.43 v 13.577 h 3.083 v -5.081 h 0.775 l 3.803,5.081 h 3.762 z m -16.8363,0.1747 1.798,-5.512 1.809,5.512 z m 0.247,-8.341 -5.079,13.577 h 3.124 l 0.936,-2.87 h 5.156 l 0.942,2.87 h 3.219 l -5.059,-13.577 z"
         inkscape:connector-curvature="0"
         style="fill:#ff595a" />
      <polygon
         id="polygon1149"
         points="133.505,22.112 130.382,22.112 130.382,35.689 133.505,35.689 133.505,30.103 138.525,30.103 138.525,35.689 141.649,35.689 141.649,22.112 138.525,22.112 138.525,27.408 133.505,27.408 "
         style="fill:#ff595a" />
      <polygon
         id="polygon1151"
         points="157.663,22.112 154.443,22.112 159.503,35.689 162.741,35.689 167.82,22.112 164.697,22.112 161.19,32.275 "
         style="fill:#ff595a" />
      <path
         id="path1153"
         d="m 147.7118,30.4523 1.798,-5.512 1.809,5.512 z m 8.545,5.236 -5.06,-13.577 h -3.238 l -5.079,13.577 h 3.123 l 0.937,-2.87 h 5.156 l 0.941,2.87 z"
         inkscape:connector-curvature="0"
         style="fill:#ff595a" />
      <polygon
         id="polygon1155"
         points="169.052,35.689 177.761,35.689 177.761,33.071 172.175,33.071 172.175,30.065 177.063,30.065 177.063,27.485 172.175,27.485 172.175,24.75 177.702,24.75 177.702,22.112 169.052,22.112 "
         style="fill:#ff595a" />
      <path
         id="path1157"
         d="m 125.3368,32.1008 c 0,0.776 -0.717,1.261 -1.978,1.261 -1.105,0 -2.385,-0.427 -4.421,-1.649 v 2.949 c 1.221,0.717 2.695,1.221 4.46,1.221 3.104,0 5.062,-1.707 5.062,-4.111 0,-4.52 -6.711,-3.821 -6.711,-6.091 0,-0.66 0.679,-1.163 1.785,-1.163 1.086,0 2.385,0.407 4.112,1.59 v -3.103 c -0.931,-0.563 -2.309,-1.087 -4.112,-1.087 -3.084,0 -4.81,1.727 -4.81,4.074 0,4.5 6.613,3.801 6.613,6.109"
         inkscape:connector-curvature="0"
         style="fill:#ff595a" />
      <polygon
         id="polygon1159"
         points="196.949,35.689 205.309,35.689 205.309,32.993 200.072,32.993 200.072,22.112 196.949,22.112 "
         style="fill:#ff595a" />
      <path
         id="path1161"
         d="m 214.454,30.2199 c 0,1.804 -0.97,2.696 -2.385,2.696 -1.417,0 -2.406,-0.853 -2.406,-2.696 v -8.108 h -3.122 v 8.224 c 0,3.473 2.094,5.548 5.488,5.548 3.511,0 5.529,-2.328 5.529,-5.548 v -8.224 h -3.104 z m 11.1006,3.1416 h -2.508 v -3.412 h 2.487 c 1.295,0 1.932,0.721 1.932,1.707 0,0.966 -0.596,1.705 -1.911,1.705 z m -2.509,-8.767 h 2.347 c 1.222,0 1.822,0.68 1.822,1.61 0,0.912 -0.561,1.61 -1.803,1.61 h -2.366 z m 5.12,4.055 c 1.126,-0.583 1.863,-1.611 1.863,-2.968 0,-1.978 -1.378,-3.57 -4.152,-3.57 h -5.856 v 13.577 h 5.856 c 2.93,0 4.538,-1.609 4.538,-3.858 0,-1.514 -0.911,-2.639 -2.249,-3.181 z m -43.2194,0.2325 c 0,3.979 2.766,6.807 7.082,6.807 h 2.458 v -2.885 h -2.151 c -2.746,0 -4.246,-1.594 -4.246,-3.922 0,-2.308 1.5,-3.886 4.246,-3.886 h 2.151 v -2.884 h -2.458 c -4.316,0 -7.082,2.811 -7.082,6.77"
         inkscape:connector-curvature="0"
         style="fill:#ff595a" />
      <path
         id="path1163"
         d="M 27.2176,7.6584 V 4e-4 H 3.7916 v 7.658 c 0,7.449 4.88,12.22 11.71,12.22 6.866,0 11.716,-4.771 11.716,-12.22 M 8.7686,7.3844 v -2.134 h 13.471 v 2.134 c 0,4.736 -2.721,7.517 -6.738,7.517 -3.981,0 -6.733,-2.781 -6.733,-7.517"
         inkscape:connector-curvature="0"
         style="fill:#efe0ca" />
      <g
         id="g1170"
         transform="translate(3,39)">
        <mask
           fill="#fff"
           id="vector-svg@1x-b">
          <use
             id="use1165"
             xlink:href="#vector-svg@1x-a"
             x="0"
             y="0"
             width="100%"
             height="100%" />
        </mask>
        <path
           id="path1168"
           mask="url(#vector-svg@1x-b)"
           d="m 12.536,0.5392 c -6.866,0 -11.744,4.771 -11.744,12.221 v 4.24 h 4.977 v -3.713 c 0,-4.737 2.75,-7.326 6.767,-7.326 3.981,0 6.704,2.589 6.704,7.326 v 3.713 h 4.978 v -4.24 c 0,-7.45 -4.851,-12.221 -11.682,-12.221"
           inkscape:connector-curvature="0"
           style="fill:#efe0ca" />
      </g>
      <path
         id="path1172"
         d="m 9.9833,32.7209 c -1.339,0 -2.175,-1.237 -2.175,-3.413 0,-1.907 0.736,-4.117 2.844,-7.63 h -5.086 c -1.239,2.108 -2.109,4.651 -2.109,7.696 0,5.356 2.945,8.735 7.094,8.735 7.798,0 6.593,-11.579 10.509,-11.579 1.138,0 2.007,1.171 2.007,3.08 0,1.874 -0.703,4.115 -2.743,7.094 h 5.354 c 0.97,-1.607 1.874,-3.983 1.874,-7.094 0,-5.322 -2.979,-8.301 -7.027,-8.301 -7.765,0 -6.56,11.412 -10.542,11.412"
         inkscape:connector-curvature="0"
         style="fill:#efe0ca" />
      <mask
         fill="#fff"
         id="vector-svg@1x-d">
        <use
           id="use1174"
           xlink:href="#vector-svg@1x-c"
           x="0"
           y="0"
           width="100%"
           height="100%" />
      </mask>
      <polygon
         id="polygon1177"
         mask="url(#vector-svg@1x-d)"
         points="0.439,1.319 0.439,0.198 0,0.198 0,0 1.104,0 1.104,0.198 0.665,0.198 0.665,1.319 "
         style="fill:#efe0ca" />
      <g
         id="g1184"
         transform="translate(1)">
        <mask
           fill="#fff"
           id="vector-svg@1x-f">
          <use
             id="use1179"
             xlink:href="#vector-svg@1x-e"
             x="0"
             y="0"
             width="100%"
             height="100%" />
        </mask>
        <polygon
           id="polygon1182"
           mask="url(#vector-svg@1x-f)"
           points="1.48,1.319 1.481,0.405 1.484,0.328 1.431,0.405 1.002,1.003 0.572,0.405 0.519,0.33 0.521,0.405 0.523,1.319 0.306,1.319 0.306,0 0.532,0 1.003,0.663 1.476,0 1.701,0 1.701,1.319 "
           style="fill:#efe0ca" />
      </g>
    </g>
  </g>
  <style
     id="style1000"
     type="text/css">
	.st0{fill:#E16A2D;}
	.st1{fill:#555759;}
	.st2{fill:#FFFFFF;}
	.st3{fill:#E16B2A;}
</style>
</svg>
