<svg xmlns="http://www.w3.org/2000/svg" fill="none" viewBox="0 0 201 92" height="92" width="201">
<path fill="white" d="M41.6172 51.5319C41.2968 49.7765 40.7843 48.0083 40.0668 46.2785C39.3492 44.5231 38.3498 42.7933 37.1197 41.1404C35.864 39.4619 34.288 37.95 32.4173 36.6687C30.5466 35.3874 28.3171 34.3495 25.7929 33.5935C23.2687 32.8375 20.3089 32.4531 16.9774 32.4531H0V80.3231H15.9396C20.1551 80.3231 23.935 79.644 27.1767 78.2986C30.4184 76.9532 33.1733 75.1466 35.3771 72.9299C37.581 70.7004 39.2595 68.125 40.3871 65.2804C41.5146 62.4359 42.0784 59.4377 42.0784 56.4009C42.0912 54.9018 41.9247 53.2745 41.6172 51.5319ZM8.09792 40.1538H16.529C20.0782 40.1538 22.9996 40.7432 25.1907 41.8964C27.3945 43.0624 29.1371 44.4847 30.3672 46.1376C31.6101 47.8033 32.4557 49.5843 32.9042 51.4166C33.3655 53.3129 33.5961 54.9659 33.5961 56.3625C33.5961 59.0661 33.1092 61.4493 32.1354 63.461C31.1616 65.4727 29.829 67.164 28.1633 68.4966C26.4848 69.8419 24.4988 70.867 22.2693 71.5461C20.0013 72.2252 17.5668 72.584 15.0298 72.584H8.09792V40.1538Z"></path>
<path fill="white" d="M101.313 46.4738C100.083 43.4242 98.3536 40.7463 96.1753 38.504C93.9971 36.2617 91.3448 34.4678 88.2953 33.1993C85.2457 31.918 81.863 31.2773 78.2497 31.2773C74.6364 31.2773 71.2537 31.9308 68.2042 33.1993C65.1547 34.4806 62.5024 36.2617 60.3241 38.504C58.1459 40.7463 56.4161 43.4371 55.186 46.4738C53.956 49.5105 53.3281 52.8419 53.3281 56.3783C53.3281 59.9019 53.956 63.2334 55.186 66.2829C56.4161 69.3196 58.1459 71.9976 60.3241 74.2527C62.5024 76.495 65.1547 78.2888 68.2042 79.5702C71.2537 80.8515 74.6236 81.4921 78.2497 81.4921C81.863 81.4921 85.2457 80.8387 88.2953 79.5702C91.3448 78.2888 93.9971 76.5078 96.1753 74.2527C98.3536 72.0104 100.071 69.3325 101.313 66.2829C102.543 63.2334 103.171 59.9019 103.171 56.3783C103.171 52.8547 102.556 49.5233 101.313 46.4738ZM94.689 56.3783C94.689 58.7616 94.2918 61.0552 93.5102 63.1693C92.7286 65.2835 91.6139 67.1286 90.1916 68.679C88.7693 70.2166 87.0396 71.4722 85.0279 72.3948C83.0419 73.3045 80.7611 73.7658 78.2754 73.7658C75.7768 73.7658 73.5089 73.3045 71.5228 72.3948C69.5112 71.4722 67.7814 70.2166 66.3591 68.679C64.9369 67.1286 63.8221 65.2835 63.0405 63.1693C62.2589 61.0552 61.8617 58.7616 61.8617 56.3783C61.8617 53.9951 62.2589 51.7015 63.0405 49.5874C63.8093 47.486 64.9369 45.6281 66.3591 44.0777C67.7942 42.5273 69.524 41.2844 71.5228 40.3619C73.5089 39.4521 75.7896 38.9909 78.2754 38.9909C80.7739 38.9909 83.0419 39.4522 85.0279 40.3747C87.0267 41.2972 88.7693 42.5401 90.1916 44.0905C91.6139 45.6409 92.7414 47.4988 93.5102 49.6002C94.2918 51.7016 94.689 53.9951 94.689 56.3783Z"></path>
<path fill="white" d="M137.316 51.9962L126.835 51.9322L134.434 31.918H123.888L113.586 58.7616C113.535 58.8641 113.612 58.9922 113.727 58.9922L122.94 59.0563L115.893 91.5376C115.854 91.717 116.111 91.8067 116.2 91.6401L137.47 52.2268C137.509 52.1243 137.432 51.9962 137.316 51.9962Z"></path>
<path fill="white" d="M3.86958 13.0466H14.2995V9.35643H3.86958V3.70582H15.0683V0.015625H0V22.8743H15.6321V19.1969H3.86958V13.0466Z"></path>
<path fill="white" d="M31.9274 17.134L25.854 0.310342L25.7515 0.015625H21.3438L30.1592 22.8743H33.5547L42.5624 0.015625H38.3468L31.9274 17.134Z"></path>
<path fill="white" d="M51.7915 13.0466H62.2214V9.35643H51.7915V3.70582H62.9902V0.015625H47.9219V22.8743H63.5539V19.1969H51.7915V13.0466Z"></path>
<path fill="white" d="M83.8631 12.1341C84.5807 11.7497 85.1957 11.2628 85.6954 10.699C86.1951 10.1352 86.5795 9.49457 86.8486 8.78985C87.1177 8.08513 87.2458 7.35479 87.2458 6.59881C87.2458 5.88127 87.1305 5.1253 86.9127 4.35651C86.6949 3.56209 86.2848 2.83174 85.7082 2.19108C85.1445 1.55042 84.3629 1.02507 83.3891 0.615046C82.4281 0.205025 81.198 0 79.7373 0H71.5625V22.8587H75.4321V13.172H78.046L83.6325 22.8587H88.4118L82.1077 12.7363C82.7612 12.621 83.3378 12.416 83.8631 12.1341ZM81.954 9.09735C81.5568 9.31518 81.0955 9.46896 80.583 9.55865C80.0448 9.64834 79.481 9.68679 78.9301 9.68679H75.4705V3.49801H78.9301C79.481 3.49801 80.0448 3.54927 80.583 3.62615C81.0955 3.71584 81.5568 3.86958 81.954 4.0874C82.3256 4.29241 82.6203 4.59996 82.8509 4.99717C83.0815 5.39437 83.1969 5.93251 83.1969 6.58599C83.1969 7.25227 83.0815 7.7776 82.8509 8.1748C82.6203 8.59764 82.3256 8.89234 81.954 9.09735Z"></path>
<path fill="white" d="M101.697 9.27956L95.9443 0.015625H91.0625L99.7498 13.2004V22.8743H103.619V13.2004L112.32 0.015625H107.617L101.697 9.27956Z"></path>
<path fill="white" d="M137.513 6.62442C137.167 5.79157 136.693 4.95869 136.103 4.16428C135.514 3.35705 134.758 2.63953 133.861 2.0245C132.964 1.40947 131.901 0.922578 130.696 0.550996C129.492 0.192227 128.07 0 126.494 0H118.383V22.8587H125.994C128.006 22.8587 129.812 22.5384 131.363 21.8977C132.913 21.2571 134.233 20.3986 135.283 19.3351C136.334 18.2716 137.141 17.0415 137.679 15.6833C138.218 14.3251 138.487 12.8901 138.487 11.4422C138.487 10.7375 138.41 9.95583 138.256 9.13579C138.102 8.30294 137.859 7.45728 137.513 6.62442ZM122.252 3.70302H126.276C127.967 3.70302 129.364 3.98491 130.414 4.53587C131.465 5.08684 132.298 5.77877 132.887 6.56037C133.477 7.35479 133.887 8.20046 134.105 9.08457C134.322 9.98149 134.438 10.7887 134.438 11.4422C134.438 12.7363 134.207 13.8767 133.733 14.8377C133.272 15.7987 132.631 16.6059 131.837 17.2465C131.042 17.8872 130.094 18.3869 129.018 18.7072C127.941 19.0276 126.775 19.1941 125.558 19.1941H122.252V3.70302Z"></path>
<path fill="white" d="M151.235 0.015625L141.164 22.8743H145.623L152.734 5.40996L159.858 22.8743H164.305L154.515 0.015625H151.235Z"></path>
<path fill="white" d="M174.682 9.27956L168.929 0.015625H164.047L172.734 13.2004V22.8743H176.604V13.2004L185.304 0.015625H180.601L174.682 9.27956Z"></path>
<path fill="white" d="M160.676 72.6018V59.7117H182.51V52.011H160.676V40.1589H184.137V32.4453H152.578V80.3153H185.303V72.6018H160.676Z"></path>
<path fill="white" d="M193.328 77.1633H194.481V80.3153H194.981V77.1633H196.134V76.7148H193.328V77.1633Z"></path>
<path fill="white" d="M200.274 76.7148L199.134 79.444H199.121L197.98 76.7148H197.25V80.3153H197.737V77.3555H197.75L198.967 80.3153H199.287L200.505 77.3555H200.517V80.3153H201.004V76.7148H200.274Z"></path>
</svg>
