<svg xmlns="http://www.w3.org/2000/svg" fill="none" viewBox="0 0 88 18" height="18" width="88">
<path fill="black" d="M24.6351 8.95218C24.6351 11.3892 26.4123 13.102 29.2108 13.102C31.9852 13.102 33.7624 11.3892 33.7624 8.95218C33.7624 6.53905 31.9852 4.89937 29.2108 4.89937C26.4123 4.89937 24.6351 6.53905 24.6351 8.95218ZM18.1133 8.90296C18.1133 3.76452 22.3968 0 29.2349 0C36.0007 0 40.3083 3.76452 40.3083 8.90296C40.3083 13.9458 36.0007 18 29.2108 18C22.3968 18 18.1133 13.9219 18.1133 8.90296ZM0 17.4438V0.554688H16.4037V5.11516H6.08491V7.40735H15.7144V11.3406H6.08491V17.4438H0ZM51.8623 8.73376H48.4312V4.79626H52.0339C53.736 4.79626 54.6139 5.44875 54.6139 6.70313C54.6139 8.03063 53.6636 8.72954 51.8623 8.72954V8.73376ZM60.9159 6.24469C60.9159 2.81906 58.3855 0.550781 54.3444 0.550781H42.3477V17.4399H48.4312V11.092H48.8893L53.9317 17.4399H61.0861L56.0494 11.6011C58.9939 11.3592 60.9159 9.26109 60.9159 6.24469ZM75.7276 10.615L78.8424 0.554688H88.0095V17.4438H81.9742V7.6H81.5175L78.4694 17.4438H72.1164L69.0782 7.5986V7.6H68.62V17.4438H63.2344V0.554688H72.166L75.2765 10.6263V10.615H75.7276Z" clip-rule="evenodd" fill-rule="evenodd"></path>
</svg>
