<svg width="415" height="318" viewBox="0 0 415 318" fill="none" xmlns="http://www.w3.org/2000/svg">
<path d="M213.393 85.2432C211.406 83.5078 209.284 81.5397 208.953 80.6923C207.649 77.3602 209.845 68.8156 211.116 65.3683C212.678 61.127 216.285 57.5622 214.58 52.8427C212.751 47.7817 204.136 40.52 199.901 36.8998C184.316 23.5759 162.9 9.45792 144.15 1.1054C142.159 0.217426 140.829 -0.711105 138.78 0.808698C136.801 2.27727 136.344 4.89424 138.161 6.70647C149.617 16.6941 162.969 25.0274 174.525 34.7609C175.351 35.4568 179.358 39.0621 179.652 39.7152C180.681 41.9971 178.226 45.6215 175.688 44.4817C167.701 38.1848 159.534 32.1333 151.474 25.941C147.657 23.0102 138.201 14.3738 134.257 13.1464C126.976 10.8838 125.908 18.327 130.017 22.8693C142.68 33.5357 156.153 43.1625 169.163 53.4468C170.817 56.147 167.603 59.43 164.892 57.8376C159.06 53.1821 153.015 48.7935 147.128 44.2106C140.825 39.3033 133.738 32.605 127.204 28.3722C124.617 26.6966 120.288 24.7328 118.049 27.9709C115.641 31.4545 119.468 36.7141 122.382 38.7654L157.308 66.3908C159.867 69.5478 155.888 73.787 152.612 71.1273C141.674 62.4653 130.645 53.9207 119.646 45.3334C116.7 43.0345 110.294 35.6724 107.553 41.8199C106.877 43.3376 106.981 44.2085 107.867 45.5682C109.893 48.6782 114.072 53.0519 116.644 55.9869C129.584 70.7474 146.268 86.5239 161.884 98.4176C167.285 102.529 172.497 106.719 179.227 102.452C183.601 99.6792 185.595 97.2415 190.955 95.3481C193.87 94.3172 198.11 90.1825 204.257 97.233L213.397 85.241L213.393 85.2432Z" fill="#A61C1C"/>
<path d="M45.5596 458.852C44.4262 457.943 45.2608 455.986 45.8841 454.238C47.9674 448.397 158.373 240.586 161.4 235.057C169.404 220.438 190.927 194.336 194.249 178.6C195.209 174.047 192.895 171.456 191.235 167.752C188.291 161.189 186.116 154.644 183.399 147.984C182.254 145.177 180.85 143.171 180.265 140.089C178.028 128.308 188.611 119.913 189.305 108.809C189.384 107.545 189.166 105.863 189.424 104.503C190.133 100.789 192.285 98.2172 195.305 96.215L207.316 93.1519C207.895 93.391 214.749 84.1035 215.026 83.6169C216.239 81.4802 216.975 79.4929 218.437 77.5505C221.639 73.2963 225.432 72.5108 230.476 72.9654C237.371 73.5866 241.868 79.6103 245.343 84.9403C246.897 84.8506 248.4 84.3319 249.971 84.3512C258.644 84.4579 264.349 92.7122 268.324 99.3891C268.911 99.7754 272.132 99.387 273.251 99.5065C280.662 100.301 287.842 106.247 287.275 114.203C287.142 116.064 286.414 117.518 286.303 119.264C289.648 120.436 292.901 121.738 295.07 124.681C298.513 129.352 299.136 135.997 297.589 141.523C297.059 143.412 295.952 145.069 295.751 147.047L281.881 173.659C280.036 178.25 277.861 182.069 274.649 185.834C271.152 189.933 266.8 192.793 262.714 196.2C256.334 201.523 244.699 212.149 241.138 219.464C233.447 235.258 159.361 459.747 154.746 476.702L45.5596 458.852Z" fill="#FCF7DE"/>
<path d="M202.564 94.1955L200.785 92.5263C195.863 89.555 186.862 93.8881 182.435 96.8082C176.469 100.744 175.495 104.164 167.864 99.4999C162.195 96.0333 155.586 89.9093 150.451 85.478C138.649 75.294 127.796 65.0012 117.557 53.2078C115.326 50.6378 112.466 47.5875 110.556 44.851C109.693 43.6151 109.187 42.8445 110.84 41.9117L112.451 42.6417C118.714 47.6729 124.975 52.7616 131.308 57.7181C137.504 62.5699 144.698 68.9053 151.07 73.1573C157.561 77.4883 163.642 69.8551 158.869 64.3416L122.166 35.222C117.886 30.0884 119.715 26.4127 125.974 30.6306C133.323 35.5827 140.798 42.4603 147.9 47.9802C153.236 52.1277 158.677 56.1385 164.007 60.2859C169.548 62.7407 175.203 55.7223 170.364 51.2248C163.864 45.1818 154.965 39.585 147.872 34.0715C143.101 30.3616 136.614 25.7254 132.384 21.6484C131.598 20.8927 130.601 19.4839 130.352 18.4273C128.862 12.1304 135.904 16.9203 138.055 18.4401C149.874 26.7905 161.136 37.5871 173.083 45.7518C174.746 46.8895 175.534 47.5256 177.7 47.0987C181.31 46.3857 183.493 41.6662 181.835 38.4132C180.761 36.3085 174.885 31.9113 172.799 30.2506C162.112 21.738 150.766 13.9618 140.26 5.20588C138.875 4.11939 139.72 2.89629 141.135 2.48006C162.28 12.7579 182.569 24.9996 200.243 40.5562C203.302 43.2501 211.627 50.5417 212.363 54.179C213.016 57.4107 210.293 60.5869 209.093 63.5817C207.249 68.1859 204.271 79.0593 207.486 83.2132C208.384 84.3744 210.026 85.8793 211.864 87.4482L213.388 85.2432C211.401 83.5078 209.279 81.5397 208.948 80.6923C207.644 77.3602 209.84 68.8156 211.11 65.3683C212.673 61.127 216.28 57.5622 214.575 52.8427C212.745 47.7817 204.13 40.52 199.895 36.8998C184.315 23.5759 162.899 9.45792 144.149 1.1054C142.158 0.217426 140.828 -0.711105 138.779 0.808698C136.8 2.27727 136.343 4.89424 138.16 6.70647C149.616 16.6941 162.968 25.0274 174.524 34.7609C175.35 35.4568 179.357 39.0621 179.651 39.7152C180.68 41.9971 178.225 45.6215 175.687 44.4817C167.7 38.1848 159.533 32.1333 151.473 25.941C147.656 23.0102 138.2 14.3738 134.256 13.1464C126.975 10.8838 125.907 18.327 130.016 22.8693C142.679 33.5357 156.152 43.1625 169.162 53.4468C170.816 56.147 167.602 59.43 164.891 57.8376C159.059 53.1821 153.014 48.7935 147.127 44.2106C140.824 39.3033 133.737 32.605 127.203 28.3722C124.616 26.6966 120.287 24.7328 118.048 27.9709C115.64 31.4545 119.467 36.7141 122.381 38.7654L157.307 66.3908C159.866 69.5478 155.887 73.787 152.611 71.1273C141.673 62.4653 130.644 53.9207 119.645 45.3334C116.699 43.0345 110.293 35.6724 107.552 41.8199C106.876 43.3376 106.98 44.2085 107.866 45.5682C109.892 48.6782 114.071 53.0519 116.643 55.9869C129.583 70.7474 146.267 86.5239 161.883 98.4176C167.284 102.529 172.496 106.719 179.226 102.452C183.6 99.6792 185.594 97.2415 190.954 95.3481C193.869 94.3172 197.225 93.0514 199.902 94.8913L202.566 94.1955H202.564Z" fill="#111111"/>
<path d="M229.193 104.736L226.168 105.355C227.671 105.677 229.244 105.683 230.751 105.986C234.412 106.723 239.727 108.068 240.843 112.076C242.335 117.432 238.455 123.027 234.367 126.164C231.63 128.265 230.964 128.209 227.688 126.978C225.007 125.97 218.981 122.649 218.003 119.874C217.487 118.409 217.818 115.901 218.221 114.416C218.362 113.897 218.496 113.041 219.175 113.024C218.802 114.642 218.951 116.567 219.363 118.164C219.457 118.527 220.208 120.956 220.699 120.713C219.489 114.557 220.136 102.695 229.193 104.736ZM230.888 125.375C231.709 125.686 232.777 124.913 233.475 124.482C238.63 121.306 244.002 112.9 236.749 108.917C227.549 103.865 221.12 106.588 221.37 117.682C221.335 117.974 221.634 117.912 221.841 117.846C222.588 117.607 224.723 115.088 225.111 114.335L226.465 111.124C226.339 112.806 226.151 113.991 225.323 115.477C223.338 119.041 218.968 120.025 224.559 123.108C229.193 125.663 232.081 123.063 235.317 119.771L238.698 113.314C238.497 118.145 235.009 122.997 230.888 125.372V125.375Z" fill="#111111"/>
<path d="M251.947 199.164C248.023 201.137 242.708 200.479 238.495 199.694C232.962 198.665 227.903 197.233 223.079 194.257C222.744 194.05 222.317 194.001 222.185 193.548C226.349 194.919 230.787 194.942 235.043 195.805C240.7 196.949 246.055 199.551 251.947 199.164Z" fill="#111111"/>
<path d="M282.599 170.166C277.598 168.638 275.641 164.337 271.715 160.877C270.91 160.401 290.51 149.326 294.132 144.705L291.419 152.02C292.192 152.229 292.841 152.695 293.304 153.318L295.927 146.814C296.128 144.835 297.236 143.179 297.765 141.29C299.313 135.763 298.689 129.119 295.246 124.448C293.078 121.505 289.825 120.203 286.48 119.031C286.591 117.285 287.317 115.831 287.451 113.97C288.019 106.014 280.84 100.065 273.427 99.2733C272.308 99.1537 269.087 99.5422 268.5 99.1559C264.528 92.479 258.82 84.2246 250.148 84.1179C248.576 84.0987 247.074 84.6174 245.52 84.7071C242.045 79.3771 237.547 73.3534 230.653 72.7322C225.609 72.2775 220.744 73.1805 217.54 77.4368C216.078 79.3792 215.48 81.7827 214.268 83.9194C213.992 84.4061 208.071 93.1599 207.493 92.9187L195.482 95.9818C192.463 97.984 189.509 100.861 188.8 104.573C188.542 105.931 188.873 107.067 188.794 108.33C188.1 119.432 177.387 128.899 179.624 140.679C180.209 143.762 181.803 145.986 182.947 148.793C185.665 155.455 187.789 162.398 190.732 168.962C192.393 172.666 194.419 174.028 193.458 178.581C190.139 194.316 169.579 220.202 161.574 234.822C158.547 240.35 48.1417 448.162 46.0584 454.002C45.4351 455.753 44.6005 457.708 45.734 458.617C46.528 459.255 47.7276 458.927 48.178 458.013C49.4396 455.454 50.462 452.683 51.6787 450.079C61.6663 428.708 186.837 204.584 196.265 182.92C196.965 182.679 197.381 185.159 197.537 185.501C198.177 186.895 199.157 188.086 200.133 189.26C200.735 187.657 199.64 185.868 200.278 184.145C201.424 185.862 201.934 187.684 203.723 188.933C205.8 190.382 210.848 191.529 213.437 191.612C213.832 191.625 214.345 191.785 214.586 191.358L208.332 189.448C206.005 188.737 203.281 185.343 201.947 183.358C201.817 183.163 200.863 182.039 201.236 181.859C205.379 185.68 210.656 187.548 215.64 189.909C217.431 190.756 219.613 192.419 221.461 192.95C222.029 193.113 229.035 192.594 229.852 192.376C230.049 192.325 230.311 192.274 230.371 192.056C229.711 191.83 229.024 191.67 228.362 191.439C228.08 191.341 227.429 191.347 227.611 190.955C231.656 190.782 235.748 189.874 239.204 192.688C239.571 192.065 238.636 191.134 238.824 190.681C239.073 190.073 241.027 189.048 241.622 187.349C241.827 186.767 242.211 183.287 242.124 182.739C242.105 182.613 241.908 182.346 241.84 182.397C241.453 183.925 240.126 187.07 238.843 188C237.972 188.632 235.643 188.523 234.576 188.434C234.448 188.199 235.942 187.185 236.213 186.869C238.514 184.175 239.319 180.523 239.727 177.097L239.522 173.949C238.706 174.77 238.969 175.727 238.702 176.653C237.105 182.222 236.531 185.038 230.821 187.136C221.532 190.549 206.532 183.691 199.894 176.937C192.967 169.891 190.973 159.391 186.446 150.889C187.468 150.323 188.487 151.361 189.415 151.679C193.693 153.141 199.249 154.516 202.551 150.524L196.502 151.967C195.607 152.197 191.238 151.634 192.066 150.323L193.859 149.418C187.163 149.254 182.702 146.522 182.027 139.601C181.118 130.286 186.621 121.985 188.943 113.195C189.159 112.377 189.035 111.459 189.454 110.653C190.666 112.418 189.535 114.497 189.639 116.38C189.697 117.415 190.275 117.788 190.463 118.506C190.687 119.362 190.457 120.348 190.66 121.174C190.888 122.113 192.608 124.241 193.289 125.112C193.439 125.304 193.556 125.885 193.923 125.565C193.003 123.409 192.963 121.016 192.662 118.725L193.492 119.368C192.905 114.614 188.849 108.554 190.82 103.745C192.393 99.9051 197.951 95.5207 202.141 95.3073C208.782 94.97 213.92 99.38 220.091 101.188C228.253 103.579 246.828 105.971 244.363 118.303C240.689 136.683 207.738 135.552 200.575 120.247C200.094 119.219 199.883 118.045 199.369 117.037C199.349 119.204 199.168 121.317 200.304 123.255C199.9 123.411 197.554 121.178 197.383 120.561C196.948 120.807 197.362 121.569 197.49 121.887C198.931 125.447 202.827 127.392 205.505 129.879C203.618 130.034 201.49 129.678 199.71 129.005C198.592 128.585 197.599 127.733 196.466 127.373C197.339 128.655 200.099 131.193 201.488 131.618L205.382 132.809C203.823 136.263 199.657 136.54 196.335 136.242C196.175 136.523 196.664 136.76 196.858 136.85C198.197 137.473 201.063 137.582 202.551 137.332C204.692 136.972 206.257 135.569 208.161 134.69C206.583 138.408 202.107 139.969 198.395 140.481C198.483 141.465 200.295 141.283 201.072 141.239C203.01 141.125 204.795 140.208 206.692 139.915C206.509 142.357 204.169 143.913 202.005 144.479L197.189 145.271L200.611 146.317C204.289 147.442 208.248 144.936 210.477 142.199C211.284 141.209 211.728 140.131 212.438 139.196C212.656 138.908 212.477 138.767 213.032 139.019C214.037 143.563 210.791 146.513 208.867 150.131C213.856 147.299 218.387 141.14 216.259 135.23C216.259 135.053 216.503 135.127 216.641 135.223C218.259 136.323 218.4 140.395 218.27 142.167C218.932 142.103 219.228 140.844 219.365 140.304C219.675 139.074 219.342 137.868 219.692 136.671C220.014 136.479 220.9 138.333 221.032 138.624C222.379 141.578 222.648 144.872 222.4 148.076C222.874 148.131 222.943 147.706 223.13 147.41C223.907 146.18 224.315 144.712 225.096 143.48C227.957 145.027 229.146 146.231 229.57 149.497C229.741 150.808 230.006 156.108 229.69 157.141L228.535 160.917C228.488 161.069 227.508 161.94 228.136 162.213C232.386 157.602 232.86 150.725 231.645 144.835C231.921 144.547 232.211 145.051 232.375 145.239C237.366 150.925 236.121 156.846 234.657 163.692C234.99 163.839 235.27 163.203 235.364 162.983C236.41 160.539 236.275 158.04 236.926 155.523C237.671 154.481 239.421 156.682 239.833 157.282C242.662 161.397 242.416 169.11 241.861 173.893C242.254 174.074 242.248 173.426 242.346 173.144C242.634 172.303 242.768 170.962 243.2 170.305C243.409 169.985 243.202 169.844 243.789 170.1C243.93 171.532 244.382 172.935 244.491 174.373C244.589 175.669 244.211 177.872 244.359 178.792C244.376 178.901 244.504 179.112 244.643 179.133C244.941 178.967 245.633 176.589 246.45 176.591C247.125 182.034 247.304 188.259 252.833 191.183C250.707 187.808 249.52 184.175 248.525 180.333C246.747 173.473 244.211 163.551 244.916 156.558C244.971 156.003 245.268 152.915 245.464 152.808C246.828 153.233 248.739 153.717 250.169 153.662C250.852 153.634 251.409 153.194 251.721 153.207C252.16 153.226 254.647 155.583 255.01 156.134C255.576 156.994 255.843 158.164 256.432 159.133C260.223 165.344 265.292 168.501 271.958 171.233C272.648 171.451 272.3 171.011 272.037 170.794C268.906 168.19 265.585 166.456 262.731 163.291C262.468 163 260.5 160.787 261.19 160.456L271.395 165.893L266.906 161.167C266.795 160.817 268.266 160.823 268.526 161.03L281.545 173.152C279.762 176.683 277.705 180.12 275.124 183.127C271.707 187.11 267.337 190.013 263.397 193.407C260.831 195.616 258.551 198.34 255.817 200.336C251.699 203.341 242.154 204.838 237.018 204.757C236.751 204.752 236.288 204.594 236.237 204.955L239.658 206.001C240.205 206.168 242.19 206.159 242.905 206.159C245.014 206.159 247.106 205.446 249.136 205.803C249.225 205.952 247.874 207.156 247.644 207.269C246.779 207.694 243.387 208.319 242.322 208.411C239.678 208.637 237.212 208.123 234.623 207.689C234.488 208.127 239.184 209.506 239.789 209.593C241.748 209.873 244.128 208.96 246.094 209.004C242.288 212.911 239.383 217.613 237.496 222.749C230.86 240.805 153.768 454.071 144.596 473.83C144.438 474.167 144.38 474.552 144.478 474.91C144.912 476.471 147.529 476.725 148.344 474.861C149.153 473.01 154.361 478.524 154.916 476.483C159.529 459.529 234.224 235.33 241.915 219.536C245.477 212.221 256.641 202.49 263.023 197.166C267.107 193.759 271.489 191.057 274.987 186.959C278.2 183.193 280.691 178.798 282.535 174.207L283.989 171.231L282.591 170.179L282.599 170.166ZM232.132 103.564C224.512 101.34 216.996 98.8826 209.836 95.461C212.144 92.0862 213.478 88.022 215.613 84.5811C216.93 82.4572 219.243 80.487 220.447 78.4315C220.644 78.0963 220.575 78.0472 220.213 77.9918L217.794 79.5735C218.411 77.8594 219.801 75.9191 221.38 74.9863C221.784 74.7494 224.979 73.6863 224.565 74.2862L223.534 75.1314C223.732 75.4153 225.508 74.5039 226.001 74.3865C231.361 73.0972 236.292 75.2574 239.556 79.5585C241.313 81.8745 242.805 85.2877 241.735 88.18L239.28 83.5608C238.824 85.2898 239.334 87.9729 238.988 89.5632C238.728 90.7564 238.141 93.574 237.722 94.5687C237.039 96.191 234.591 99.0363 233.519 100.785C232.981 101.662 232.452 102.58 232.132 103.564ZM240.8 141.23C237.923 144.688 230.215 141.881 227.218 139.678C226.384 139.066 225.263 138.02 225.011 136.999C228.051 138.662 231.824 139.734 235.278 140.127C235.686 140.173 235.637 140.406 235.776 139.772C232.335 138.355 228.949 136.579 226.151 134.122C227.615 133.599 229.229 134.442 230.924 134.551C232.48 134.651 234.249 134.611 233.065 132.615L233.167 132.271C237.374 131.072 242.638 127.586 244.361 123.398C247.027 116.913 246.412 107.931 238.623 105.551L234.964 104.432C235.624 102.902 236.23 101.329 236.962 99.8282C238.132 97.429 240.44 92.5153 242.632 91.1662C243.204 90.814 243.844 90.7671 244.408 90.417L243.609 89.6528C243.703 88.4105 248.389 87.8385 249.409 87.5588L248.103 86.7776C256.739 84.9568 264.007 92.7671 266.127 100.415L265.595 100.904C264.507 101.369 264.951 99.6191 264.818 98.9339C264.697 98.2999 264.5 97.3564 264.125 96.8335C263.947 99.2327 263.706 101.444 262.729 103.69C261.924 105.542 260.404 107.212 259.435 109.018C253.567 119.974 247.767 130.912 240.798 141.234L240.8 141.23ZM250.342 147.839L252.175 149.427C249.746 149.1 244.292 147.021 243.699 144.353C243.101 141.659 245.729 144.532 246.495 145.04C247.827 145.92 249.635 146.876 251.281 146.445C251.616 145.811 249.364 145.23 248.886 144.955C247.313 144.048 245.533 142.816 244.939 141.032C246.139 141.204 246.214 138.997 246.623 138.06C248.643 133.422 250.95 130.688 253.36 126.572C256.225 121.678 259.58 115.769 262.129 110.729C262.643 109.713 262.534 108.264 263.93 108.495C264.545 105.173 265.679 102.324 269.209 101.372C272.323 100.533 275.7 101.231 278.354 102.998C278.996 103.427 281.212 105.666 281.41 105.717C281.752 105.805 281.812 105.549 281.705 105.171C281.489 104.415 280.755 103.871 280.52 103.135C285.09 106.774 286.486 113.487 284.217 118.813C281.455 125.298 273.034 135.804 267.67 140.468C265.681 142.197 259.16 147.619 257.031 148.334C254.978 149.023 252.417 148.157 250.346 147.843L250.342 147.839ZM295.684 139.631L294.638 143.053L293.949 142.722L294.145 142.131L292.745 141.727C289.163 147.151 282.99 152.133 277.175 155C276.618 155.273 275.839 155.28 275.318 155.596C274.447 156.125 273.529 157.485 272.494 158.091C268.701 160.315 261.029 156.08 259.004 152.417L259.228 152.104L261.584 154.11C261.738 153.077 259.744 151.008 260.21 150.264C265.493 146.52 270.142 141.86 274.627 137.204C275.542 136.254 276.236 134.954 276.987 134.212C277.927 133.283 279.656 132.771 280.157 131.251C280.311 130.788 280.202 130.267 280.349 129.787C281.09 127.358 284.757 126.707 285.607 124.032L289.722 124.521C288.947 122.546 286.48 122.674 284.747 122.228L285.229 121.466C291.545 122.124 295.001 124.715 295.846 131.048C296.1 132.954 296.207 137.919 295.682 139.633L295.684 139.631Z" fill="#111111"/>
<path d="M335.459 187.597C319.023 173.163 306.57 162.54 289.694 148.595C289.022 149.101 288.635 149.367 287.912 149.884C304.875 163.964 317.176 174.999 333.779 189.493C336.236 192.182 334.095 196.054 332.353 198.563C327.838 205.058 322.082 206.322 316.047 200.661L272.665 159.961C272.31 160.22 271.947 160.448 271.54 160.661C271.055 160.922 270.519 161.08 269.971 161.093C282.174 172.666 294.416 184.197 306.775 195.593C309.387 198.001 312.38 201.015 315.119 203.156C319.144 206.305 322.835 208.1 327.994 205.888C333.147 203.679 340.992 192.795 335.459 187.597Z" fill="#111111"/>
<path d="M288.683 149.249C305.242 162.94 317.584 173.473 333.81 187.722C336.039 189.826 335.741 193.23 333.875 196.785C332.966 198.517 331.734 200.17 330.422 201.519C329.101 202.877 327.751 203.874 326.627 204.355C324.238 205.38 322.257 205.456 320.422 204.954C318.547 204.442 316.744 203.306 314.761 201.755C312.064 199.647 309.143 196.701 306.479 194.245C294.556 183.251 282.743 172.13 270.965 160.965C270.989 160.952 271.015 160.942 271.039 160.929L271.079 160.908L271.116 160.884L287.488 150.106L287.504 150.096L287.519 150.085C287.985 149.752 288.317 149.515 288.683 149.249Z" fill="#A61C1C" stroke="#111111" stroke-width="2"/>
</svg>
