<?xml version="1.0" encoding="UTF-8"?>
<svg id="Layer_1" xmlns="http://www.w3.org/2000/svg" version="1.1" viewBox="0 0 372.8 99.1">
  <!-- Generator: Adobe Illustrator 30.0.0, SVG Export Plug-In . SVG Version: 2.1.1 Build 123)  -->
  <defs>
    <style>
      .st0 {
        isolation: isolate;
      }

      .st1 {
        fill: #fff;
      }
    </style>
  </defs>
  <g>
    <path class="st1" d="M143.3,36.5h-10.9c-1.5,0-2.7-1.2-2.7-2.7v-11.7c0-1.5,1.2-2.7,2.7-2.7h11.2c4.7,0,8.6,3.9,8.5,8.7,0,4.7-4.1,8.4-8.8,8.4ZM154.9,40.8c3.7-3.3,5.9-8.1,5.8-13.4-.3-9.3-8.2-16.5-17.4-16.5h-17.7c-2.4,0-4.3,1.9-4.3,4.3v41.4c0,2.4,1.9,4.3,4.3,4.3s4.3-1.9,4.3-4.3v-9c0-1.5,1.2-2.7,2.7-2.7h11.1c4.7,0,8.5,3.8,8.5,8.5v3c0,2.4,1.9,4.3,4.3,4.3s4.3-1.9,4.3-4.3v-3c0-5.1-2.3-9.7-5.8-12.8l-.1.2Z"/>
    <path class="st1" d="M207,11c-2.4,0-4.3,1.9-4.3,4.3v10.1c0,6.3-5.3,11.5-11.7,11.2-6-.3-10.6-5.5-10.6-11.5v-9.8c0-2.4-1.9-4.3-4.3-4.3s-4.3,1.9-4.3,4.3v9.7c0,9.9,7.2,18.5,16.8,19.9-.9,2.3-1.4,4.7-1.4,7.3v4.6c0,2.4,1.9,4.3,4.3,4.3s4.3-1.9,4.3-4.3v-4.6c0-4.2,2.3-7.8,5.6-9.7,5.9-3.4,9.8-9.8,9.8-17.1v-10c0-2.4-1.9-4.3-4.2-4.3v-.1Z"/>
    <path class="st1" d="M255.9,10.9h-30.9c-2.4,0-4.3,1.9-4.3,4.3s1.9,4.3,4.3,4.3h11.2v37.2c0,2.4,1.9,4.3,4.3,4.3s4.3-1.9,4.3-4.3V19.5h11.2c2.4,0,4.3-1.9,4.3-4.3s-2-4.3-4.3-4.3h-.1Z"/>
    <path class="st1" d="M311.6,45.4V15.2c0-2.4-1.9-4.3-4.3-4.3s-4.3,1.9-4.3,4.3v15.1c-3.2-2.2-7.1-3.5-11.2-3.5s-8,1.6-11.1,4v-15.6c0-2.4-1.9-4.3-4.3-4.3s-4.3,1.9-4.3,4.3v18.6c-.5-.1-1-.3-1.5-.5-1.1-.5-2.1-1.2-3-2-.2-.2-.3-.3-.4-.5-1.2-1.4-3.2-1.9-4.9-1.2h-.1c-2.7,1.2-3.4,4.5-1.5,6.7.3.3.6.7.9,1,1.6,1.6,3.6,2.9,5.8,3.9,1.5.6,3.2,1.1,4.9,1.3v14.1c0,2.4,1.9,4.3,4.3,4.3s4.3-1.9,4.3-4.3v-15.2c2.6-2.7,6.8-6.2,11.1-6.2s5.9,1.2,8,3.3c1.9,1.9,3.1,4.5,3.3,7.3v10.7c0,2.4,1.9,4.3,4.3,4.3s4.3-1.9,4.3-4.3v-10h0v-1.1h-.3Z"/>
    <path class="st1" d="M372.8,15.2c0-1.8-1-3.3-2.6-4-2.1-.8-4.1,0-5.1,1.5l-14.6,20.4-14.6-20.4c-1.1-1.5-3-2.3-5.1-1.5-1.6.6-2.6,2.3-2.6,4v41.4c0,2.4,2,4.3,4.4,4.3s4.1-2.1,4.1-4.5v-27.9l8.2,11.5c2.8,3.8,8.5,3.8,11.2,0l8.2-11.5v28.2c0,2.4,2,4.3,4.4,4.3s4.1-2.1,4.1-4.5V15.2Z"/>
    <path class="st1" d="M76.5,44.4c-.2-.7-.7-1.3-1.4-1.6-2-1-3.7-4.4-5.5-8.4-2.6-5.6-5.5-12-12.1-12s-6,1.6-8.2,4.7c-1.4,2-2.7,4.6-3.9,7.2-2.9,6.2-4.5,8.8-7.1,8.8s-4.2-2.6-7.1-8.8c-2.6-5.6-5.5-12-12.1-12s-6,1.6-8.2,4.7c-1.4,2-2.7,4.6-3.9,7.2-1.9,4-3.6,7.3-5.5,8.4-.7.3-1.2,1-1.4,1.6-.2.7-.2,1.5.2,2.1.7,1.4,2.4,1.9,3.8,1.2,3.6-1.9,5.6-5.9,8-11,1.1-2.4,2.3-4.7,3.4-6.3.7-1,1.9-2.4,3.7-2.4,2.8,0,4.6,3.4,7.1,8.7,2.7,5.9,5.6,12,12.2,12s9.4-6.1,12.2-12c1.1-2.4,2.2-4.7,3.4-6.3.7-1,1.9-2.4,3.7-2.4,2.8,0,4.5,3.3,7.1,8.7,2.4,5.1,4.5,9.1,8,11,1.4.7,3,.2,3.8-1.2,0-.6.1-1.4-.1-2l-.1.1Z"/>
    <path class="st1" d="M6.5,24c4.1-5.7,9.1-6.9,12.5-6.9s8.5,1.9,11.6,5.8c2.3,2.8,3.9,6.2,5.3,9.2,1,2,1.7,3.6,2.3,4.6.6-1,1.4-2.5,2.3-4.6,1.4-2.9,2.7-5.8,4.4-8.1,4.1-5.7,9.1-6.9,12.5-6.9s8.5,1.9,11.6,5.8c2.3,2.8,3.9,6.2,5.3,9.2.4.8,1.2,2.7,2,4.1,0-2.8-.5-5.6-1.1-8.2-1.1-2.3-2.4-4.6-4.2-6.7-3.7-4.5-8.3-6.7-13.7-6.7s-9.8,1.4-14.6,8c-1.8,2.5-3.2,5.4-4.6,8.4-1.5-3.1-3.1-6.6-5.6-9.6-3.7-4.5-8.3-6.7-13.7-6.7s-9.8,1.4-14.6,8c-1.2,1.7-2.3,3.6-3.2,5.5C.3,30.9,0,33.6-.1,36.4c.8-1.5,1.6-3.3,2-4.1,1.4-2.9,2.8-5.8,4.5-8.1l.1-.2Z"/>
    <path class="st1" d="M19,40.2c1.5,3.3,3.2,6.7,5.6,9.7,3.7,4.4,8.2,6.6,13.6,6.6s9.9-2.2,13.6-6.6c2.5-3,4.1-6.4,5.6-9.7,2.9,6.2,5.8,11.5,11.4,14.4.9.5,1.9.8,2.8,1,.5-.8.8-1.6,1.2-2.5-1-.1-2-.4-2.8-.8-5-2.6-7.6-7.6-10.3-13.4-.5-1.1-1.5-3.1-2.3-4.5-.7,1.2-1.5,2.9-2.3,4.5-1.5,3.2-3,6.5-5.4,9.3-3.1,3.8-7.1,5.7-11.6,5.7s-8.5-1.9-11.6-5.7c-2.3-2.8-3.8-6.1-5.4-9.3-.5-1-1.4-3-2.3-4.5-.7,1.2-1.5,2.9-2.3,4.5-2.8,5.8-5.4,10.8-10.4,13.4-.9.5-1.9.7-2.8.8.4.8.8,1.6,1.2,2.5,1-.2,1.9-.5,2.8-1,5.6-2.9,8.5-8.2,11.4-14.4h.3Z"/>
    <path class="st1" d="M19,55.2c6.4,7.4,13.9,9,19.3,9s12.8-1.6,19.3-9c2.3,2.6,4.8,4.6,7.7,6.2.6.3,1.2.6,1.9.8.6-.7,1.2-1.4,1.8-2.1-.8-.3-1.6-.6-2.4-1-4-2-6.8-5-8.9-8.1-.5.7-1,1.4-1.6,2.1-5.9,7.1-12.9,8.6-17.7,8.6s-11.8-1.5-17.7-8.5c-.6-.7-1.1-1.4-1.6-2.1-2.2,3.1-5,6-8.9,8.1-.8.4-1.6.7-2.4,1,.6.7,1.1,1.5,1.8,2.1.6-.2,1.2-.5,1.9-.8,2.9-1.5,5.5-3.6,7.7-6.2l-.2-.1Z"/>
    <path class="st1" d="M36.7,17.6c.6.7,1,1.3,1.5,2,.1-.2.2-.3.3-.5,4.7-6.5,11.5-10.2,18.9-10.2s5.1.3,8.1,1.5c-1.4-1.4-2.8-2.7-4.4-3.9-1.3-.2-2.6-.3-3.7-.3-7.4,0-14.1,3.2-19.3,9-6.4-7.5-14-9-19.3-9s-2.5.1-3.7.3c-1.6,1.2-3,2.5-4.5,3.9,2.5-1,5.3-1.6,8.2-1.6,4.9.1,11.9,1.6,17.8,8.8h.1Z"/>
    <path class="st1" d="M42.3,5c3-1.7,6.2-2.9,9.6-3.5C50.3.9,48.7.4,47.1,0c-2.1.7-4.2,1.6-6.1,2.7-1,.6-1.9,1.1-2.8,1.8C35.4,2.5,32.4,1,29.3,0c-1.6.4-3.2.9-4.8,1.5,5,.9,9.7,3,13.7,6.3,1.3-1,2.7-2,4.1-2.8Z"/>
    <path class="st1" d="M38.1,71.8c7,0,13.6-2.1,19.3-6.2,1.1.8,2.2,1.5,3.4,2.1.8-.6,1.5-1.2,2.3-1.8-.1,0-.2-.1-.3-.2-2-1-3.7-2.2-5.3-3.5-5.5,4.5-12.1,6.9-19.3,6.9s-13.8-2.4-19.3-6.9c-1.6,1.3-3.3,2.5-5.3,3.5,0,0-.1,0-.2.1.7.6,1.5,1.2,2.3,1.8,1.1-.6,2.3-1.4,3.3-2.1,5.7,4.1,12.3,6.2,19.3,6.2l-.2.1Z"/>
  </g>
  <g class="st0">
    <g class="st0">
      <path class="st1" d="M131.6,81.3c0,1.8-.6,3.2-1.8,4.1s-2.8,1.4-5,1.4h-1.8v6.4h-2.8v-17.2h4.9c2.1,0,3.8.4,4.8,1.3s1.6,2.2,1.6,3.9l.1.1ZM123,84.5h1.5c1.4,0,2.5-.2,3.2-.8s1-1.3,1-2.3-.3-1.7-.9-2.2-1.5-.7-2.8-.7h-1.9v6h-.1Z"/>
      <path class="st1" d="M146.2,86.8c0,2.1-.5,3.8-1.6,5s-2.6,1.8-4.5,1.8-2.3-.3-3.2-.8-1.6-1.3-2.1-2.4-.8-2.2-.8-3.6c0-2.1.5-3.7,1.6-4.9s2.6-1.8,4.6-1.8,3.4.6,4.5,1.8,1.6,2.8,1.6,4.9h-.1ZM136.8,86.8c0,3,1.1,4.5,3.3,4.5s3.3-1.5,3.3-4.5-1.1-4.4-3.3-4.4-2,.4-2.5,1.2-.8,1.9-.8,3.3v-.1Z"/>
      <path class="st1" d="M160.1,93.3l-1.7-6.1c-.2-.6-.6-2.1-1.1-4.5h-.1c-.5,2.1-.8,3.6-1.1,4.5l-1.7,6h-3.1l-3.6-13h2.8l1.7,6.4c.4,1.6.6,2.9.8,4.1h0c0-.6.2-1.2.4-2s.3-1.3.4-1.7l2-6.8h3l1.9,6.8c.1.4.3,1,.4,1.8s.3,1.4.3,1.8h0c.1-1,.4-2.3.8-4l1.7-6.4h2.8l-3.7,13h-3.1l.2.1Z"/>
      <path class="st1" d="M174.7,93.5c-2,0-3.6-.6-4.7-1.8s-1.7-2.8-1.7-4.9.5-3.8,1.6-5,2.5-1.8,4.4-1.8,3.1.5,4.1,1.6,1.5,2.5,1.5,4.3v1.5h-8.7c0,1.3.4,2.2,1,2.9s1.5,1,2.7,1,1.5,0,2.1-.2,1.4-.4,2.1-.7v2.2c-.7.3-1.4.5-2,.7s-1.5.2-2.4.2h0ZM174.2,82.2c-.9,0-1.6.3-2.1.8s-.8,1.4-.9,2.4h5.9c0-1.1-.3-1.9-.8-2.4s-1.2-.8-2.1-.8h0Z"/>
      <path class="st1" d="M189.5,80.1c.6,0,1,0,1.4.1l-.3,2.6c-.4,0-.8-.1-1.2-.1-1.1,0-2,.4-2.7,1.1s-1,1.7-1,2.8v6.8h-2.8v-13h2.2l.4,2.3h.1c.4-.8,1-1.4,1.7-1.8s1.4-.7,2.2-.7v-.1Z"/>
      <path class="st1" d="M198.9,93.5c-2,0-3.6-.6-4.7-1.8s-1.7-2.8-1.7-4.9.5-3.8,1.6-5,2.5-1.8,4.4-1.8,3.1.5,4.1,1.6,1.5,2.5,1.5,4.3v1.5h-8.7c0,1.3.4,2.2,1,2.9s1.5,1,2.7,1,1.5,0,2.1-.2,1.4-.4,2.1-.7v2.2c-.7.3-1.4.5-2,.7s-1.5.2-2.4.2h0ZM198.4,82.2c-.9,0-1.6.3-2.1.8s-.8,1.4-.9,2.4h5.9c0-1.1-.3-1.9-.8-2.4s-1.2-.8-2.1-.8h0Z"/>
      <path class="st1" d="M211.5,93.5c-1.6,0-2.9-.6-3.8-1.8s-1.4-2.8-1.4-4.9.5-3.8,1.4-5,2.2-1.8,3.8-1.8,3,.6,3.9,1.9h.1c-.1-.9-.2-1.7-.2-2.2v-4.7h2.8v18.3h-2.2l-.5-1.7h-.1c-.9,1.3-2.2,1.9-3.9,1.9h.1ZM212.2,91.3c1.1,0,2-.3,2.5-1s.8-1.7.8-3.1v-.4c0-1.6-.3-2.8-.8-3.5s-1.4-1-2.5-1-1.7.4-2.2,1.2-.8,1.9-.8,3.4.3,2.5.8,3.3,1.3,1.1,2.3,1.1h-.1Z"/>
      <path class="st1" d="M235,80.1c1.6,0,2.9.6,3.8,1.8s1.4,2.8,1.4,4.9-.5,3.8-1.4,5-2.2,1.8-3.8,1.8-2.9-.6-3.8-1.8h-.2l-.5,1.5h-2.1v-18.3h2.8v6.9h.1c.9-1.3,2.2-1.9,3.9-1.9l-.2.1ZM234.3,82.4c-1.1,0-1.9.3-2.4,1s-.7,1.7-.8,3.3v.2c0,1.6.2,2.7.8,3.4.5.7,1.3,1.1,2.5,1.1s1.7-.4,2.2-1.2.8-1.9.8-3.4c0-2.9-1-4.4-3-4.4h-.1Z"/>
      <path class="st1" d="M241.3,80.3h3l2.6,7.4c.4,1,.7,2,.8,3h0c0-.4.2-1,.4-1.6s1.2-3.5,3-8.8h3l-5.6,14.7c-1,2.7-2.7,4-5,4s-1.2,0-1.8-.2v-2.2c.4,0,.9.1,1.4.1,1.3,0,2.3-.8,2.8-2.3l.5-1.2-5.2-13,.1.1Z"/>
      <path class="st1" d="M269.8,84h6.3v8.6c-1,.3-2,.6-3,.7s-2,.2-3.1.2c-2.6,0-4.6-.8-6-2.3s-2.1-3.7-2.1-6.5.8-4.9,2.4-6.5c1.6-1.6,3.8-2.3,6.6-2.3s3.5.3,5.1,1l-1,2.3c-1.4-.6-2.8-1-4.2-1s-3.3.6-4.3,1.7c-1.1,1.2-1.6,2.7-1.6,4.7s.5,3.7,1.4,4.8c1,1.1,2.3,1.6,4.1,1.6s1.9-.1,2.9-.3v-4.4h-3.6v-2.4l.1.1Z"/>
      <path class="st1" d="M286.1,93.3h-2.8v-14.8h-5v-2.4h12.9v2.4h-5v14.8h-.1Z"/>
      <path class="st1" d="M293.8,93.3v-17.2h2.8v17.2h-2.8Z"/>
    </g>
  </g>
</svg>