<svg width="163" height="23" viewBox="0 0 163 23" fill="none" xmlns="http://www.w3.org/2000/svg">
<path d="M1.58708 5.7941C1.58708 0.00452191 13.2891 -1.19747 14.023 5.734C14.0428 6.19476 13.8445 6.41513 13.5073 6.41513H10.5917C10.2545 6.41513 10.0958 6.25486 10.0165 5.89427C9.56032 3.16976 5.53403 3.79079 5.53403 5.7941C5.53403 8.91927 14.3205 6.61546 14.3205 12.5052C14.3205 19.036 1.50774 19.1963 0.833389 12.2448C0.813555 11.8241 1.01189 11.6438 1.36891 11.6438H4.2845C4.60184 11.6438 4.78034 11.8241 4.85968 12.2047C5.35553 14.9292 10.2347 14.809 10.2347 12.5052C10.2347 9.58036 1.58708 11.6438 1.58708 5.7941ZM25.9432 1.94774C25.9432 1.56711 26.1018 1.34674 26.5382 1.34674H29.3149C29.7314 1.34674 29.9298 1.56711 29.9298 1.94774V9.78069C29.9298 13.6671 27.5299 17.2531 22.7697 17.2531C18.0096 17.2531 15.5898 13.6671 15.5898 9.78069L15.57 1.94774C15.57 1.56711 15.7882 1.34674 16.1849 1.34674H19.0013C19.4575 1.34674 19.6161 1.56711 19.6161 1.94774L19.636 9.78069C19.636 12.7256 21.1235 13.6471 22.7697 13.6471C24.4159 13.6471 25.9233 12.7256 25.9233 9.78069L25.9432 1.94774ZM60.5335 7.47688H52.9966C52.9966 5.89427 54.5238 4.05122 56.9634 4.05122C59.403 4.05122 60.5335 5.89427 60.5335 7.47688ZM64.5003 9.82076V9.25983C64.5003 4.75238 61.9417 0.865947 56.8643 0.865947C53.0958 0.865947 50.3984 3.39012 49.4067 6.69559C48.9704 8.13798 48.9109 9.70056 49.2282 11.203C50.0215 14.8891 52.8578 17.6938 56.8643 17.6938C57.4989 17.6938 62.7351 17.6938 64.3416 12.5252C64.4408 12.1847 64.302 12.0645 64.0243 12.0645H60.8509C60.6525 12.0645 60.5137 12.1646 60.4145 12.365C60.0972 13.0461 59.2642 14.3883 56.8643 14.3883C54.742 14.3883 52.9966 12.4651 52.9966 10.4618H63.8855C64.2821 10.4618 64.5003 10.2214 64.5003 9.82076ZM146.791 7.51695H139.81C139.81 5.9744 141.099 4.17142 143.499 4.17142C145.899 4.17142 146.791 5.9744 146.791 7.51695ZM151.056 9.82076V9.25983C151.056 4.75238 148.477 0.865947 143.4 0.865947C139.631 0.865947 136.934 3.37009 135.942 6.69559C135.486 8.13798 135.426 9.70056 135.764 11.203C136.537 14.8891 139.393 17.6938 143.4 17.6938C144.034 17.6938 149.271 17.6938 150.897 12.5453C150.996 12.1847 150.857 12.0645 150.56 12.0645H147.406C147.188 12.0645 147.049 12.1646 146.95 12.365C146.633 13.0461 145.8 14.4083 143.4 14.4083C141.277 14.4083 139.73 12.4852 139.73 10.4618H150.421C150.837 10.4618 151.056 10.2214 151.056 9.82076ZM161.687 1.34674C162.242 1.34674 162.52 1.66727 162.52 2.24823V4.59211C162.52 5.19311 162.202 5.45354 161.607 5.45354C158.136 5.45354 156.47 7.09625 156.47 11.3232V16.632C156.47 17.0127 156.232 17.213 155.895 17.213H152.94C152.603 17.213 152.404 17.0127 152.404 16.632V11.3232C152.404 7.67721 153.416 1.34674 161.687 1.34674ZM125.033 1.34674H121.84C121.622 1.34674 121.543 1.42687 121.463 1.66727L118.25 11.2832L115.751 1.66727C115.692 1.42687 115.593 1.34674 115.374 1.34674H111.626C111.308 1.34674 111.348 1.54707 111.408 1.76744L115.255 16.7923C115.335 17.1329 115.474 17.213 115.85 17.213H119.837C120.134 17.213 120.313 17.0928 120.412 16.7723L123.447 7.39675L126.462 16.7723C126.561 17.0928 126.759 17.213 127.037 17.213H131.043C131.42 17.213 131.559 17.1329 131.638 16.7923L135.486 1.76744C135.545 1.54707 135.585 1.34674 135.248 1.34674H131.519C131.281 1.34674 131.182 1.42687 131.122 1.66727L128.623 11.2832L125.43 1.66727C125.351 1.42687 125.252 1.34674 125.033 1.34674ZM99.1502 9.25983C99.1502 6.43516 100.658 4.61214 103.057 4.61214C105.457 4.61214 107.183 6.43516 107.183 9.25983C107.183 12.0845 105.398 13.9476 103.057 13.9476C100.717 13.9476 99.1502 12.1045 99.1502 9.25983ZM103.057 0.865947C98.3767 0.865947 95.0049 4.75238 95.0049 9.25983C95.0049 13.7673 98.3767 17.6938 103.057 17.6938C107.738 17.6938 111.328 13.8875 111.328 9.25983C111.328 4.63218 107.56 0.865947 103.057 0.865947ZM75.2503 1.34674C75.8057 1.34674 76.0833 1.66727 76.0833 2.24823V4.59211C76.0833 5.19311 75.766 5.45354 75.171 5.45354C71.7 5.45354 70.034 7.09625 70.034 11.3232V16.632C70.034 17.0127 69.796 17.213 69.4588 17.213H66.5035C66.1664 17.213 65.968 17.0127 65.968 16.632V11.3232C65.968 7.67721 66.9796 1.34674 75.2503 1.34674ZM81.5178 8.9393C81.5178 11.7239 83.0054 13.5469 85.3656 13.5469C87.7258 13.5469 89.3919 11.7439 89.3919 8.9393C89.3919 6.13466 87.6663 4.37175 85.3656 4.37175C83.0649 4.37175 81.5178 6.17473 81.5178 8.9393ZM81.736 15.5903V22.1011C81.736 22.4817 81.5178 22.682 81.1807 22.682H78.2056C77.8684 22.682 77.6701 22.4817 77.6701 22.1011V2.2282C77.6701 1.64724 77.9874 1.34674 78.5626 1.34674H81.022C81.617 1.34674 81.736 1.64724 81.736 2.2282V3.67059H81.9542C84.9888 -2.09896 93.6364 1.02621 93.6364 8.9393C93.6364 17.4334 84.8499 18.9559 81.736 15.5903ZM35.5031 8.9393C35.5031 11.7239 37.0105 13.5469 39.3509 13.5469C41.6913 13.5469 43.3772 11.7439 43.3772 8.9393C43.3772 6.13466 41.6715 4.37175 39.3509 4.37175C37.0303 4.37175 35.5031 6.17473 35.5031 8.9393ZM35.6816 15.5903V22.1011C35.6816 22.4817 35.4436 22.682 35.1064 22.682H32.1512C31.7942 22.682 31.6157 22.4817 31.6157 22.1011V2.2282C31.6157 1.64724 31.9132 1.34674 32.4883 1.34674H34.9676C35.5626 1.34674 35.6816 1.64724 35.6816 2.2282V3.67059H35.88C38.9145 -2.09896 47.5621 1.02621 47.5621 8.9393C47.5621 17.4334 38.7757 18.9559 35.6816 15.5903Z" fill="black"/>
</svg>
