<svg xml:space="preserve" style="enable-background:new 0 0 800 350;" viewBox="0 0 800 350" y="0px" x="0px" xmlns:xlink="http://www.w3.org/1999/xlink" xmlns="http://www.w3.org/2000/svg" id="Layer_1" version="1.1">
<g>
	<g>
		<g>
			<path d="M46.1,157.6c-10.8-2.9-19.5-6.8-26.2-11.7l11.9-27.2c7.1,4.5,14.7,7.9,22.8,10.3c8.1,2.4,16.3,3.6,24.5,3.6
				c8.4,0,14.8-1.2,19.2-3.5c4.4-2.3,6.6-5.5,6.6-9.7c0-3.8-2-6.8-6-9.2c-4-2.4-11.6-4.7-22.7-7.1c-13.8-2.9-24.7-6.4-32.5-10.5
				s-13.3-8.8-16.4-14.2C24.2,72.7,22.6,66,22.6,58c0-9.1,2.5-17.2,7.6-24.4c5.1-7.2,12.3-12.8,21.6-17c9.3-4.1,19.9-6.2,31.9-6.2
				c10.6,0,20.9,1.5,30.9,4.5c10,3,17.8,6.9,23.4,11.6l-11.7,27.2C112.9,44.6,98.8,40,84,40c-7.1,0-12.8,1.4-17.2,4.1
				c-4.3,2.7-6.5,6.3-6.5,10.8c0,2.7,0.8,4.8,2.3,6.5c1.5,1.7,4.4,3.3,8.6,4.9c4.2,1.6,10.4,3.2,18.6,4.9c13.4,2.9,24,6.5,31.6,10.6
				s13.1,8.9,16.3,14.4c3.2,5.4,4.8,11.9,4.8,19.5c0,14.5-5.6,25.9-16.8,34S99,161.9,78.7,161.9C67.7,161.9,56.8,160.5,46.1,157.6z"></path>
			<path d="M181.9,145.6c-11.1-10.9-16.7-26.8-16.7-47.8V12.4H203v86.9c0,10.6,2.4,18.8,7.1,24.5c4.7,5.7,11.6,8.6,20.5,8.6
				c8.9,0,15.8-2.9,20.5-8.6c4.7-5.7,7.1-13.9,7.1-24.5V12.4h37.9v85.5c0,20.8-5.6,36.7-16.9,47.7c-11.2,11-27.5,16.4-48.7,16.4
				C209.3,161.9,193,156.5,181.9,145.6z"></path>
			<path d="M328.1,12.4h71.4c16.3,0,29.1,4.2,38.1,12.5s13.6,19.9,13.6,34.7c0,14.7-4.6,26.2-13.7,34.6s-21.8,12.6-38,12.6h-32.9
				v53.4h-38.5V12.4z M394.3,77.7c7.1,0,12.4-1.5,15.8-4.4c3.4-2.9,5.1-7.5,5.1-13.6c0-6.1-1.7-10.7-5.1-13.7
				c-3.4-3-8.7-4.5-15.8-4.5h-27.7v36.2H394.3z"></path>
			<path d="M475.7,160.1V12.4h105v29.7h-67.5v28.1h63.3v29.5h-63.3v30.6h67.5v29.7H475.7z"></path>
			<path d="M743.7,160.1h-42.3l-25.6-47.1c-3.2-5.4-8.3-8.2-15.3-8.2h-11.7v55.3h-37.9V12.4h70.4c17.9,0,31.3,3.9,40.3,11.6
				c9,7.7,13.5,19,13.5,33.6c0,11.2-3.1,20.6-9.2,28.4c-6.1,7.8-14.8,13-26,15.6c8.5,1.8,15.3,7.3,20.3,16.6L743.7,160.1z
				 M693.5,71.9c3.7-2.6,5.5-7,5.5-13c0-6.1-1.8-10.6-5.5-13.3c-3.7-2.7-9.8-4.1-18.3-4.1h-26.8v34.4h26.8
				C683.7,75.8,689.8,74.5,693.5,71.9z"></path>
			<g>
				<path d="M119.3,299c-3.8,5.5-8.7,9.7-14.5,12.6c-5.8,2.9-12.5,4.3-19.7,4.3c-7.3,0-14.1-1.3-20-4c-5.9-2.6-11-6.3-15.1-10.9
					c-4.1-4.6-7.4-10.1-9.6-16.4c-2.2-6.3-3.4-13.1-3.4-20.3c0-7,1.2-13.7,3.4-19.9c2.3-6.2,5.6-11.7,9.8-16.4
					c4.2-4.7,9.3-8.4,15.3-11.1c5.9-2.7,12.7-4.1,20.1-4.1c6.6,0,12.8,1.4,18.5,4.2c5.7,2.8,10.1,6.4,13.2,10.6l0.7,1l16.3-12.5
					l-0.7-0.9c-2.5-3.4-5.6-6.4-9.1-9c-3.5-2.6-7.4-4.8-11.7-6.5c-4.3-1.8-8.8-3.1-13.4-4c-4.6-0.9-9.3-1.3-13.7-1.3
					c-10.1,0-19.6,1.7-28.2,5.1c-8.6,3.4-16.2,8.2-22.5,14.2c-6.3,6.1-11.3,13.5-14.9,22c-3.6,8.6-5.4,18.1-5.4,28.5
					c0,10.2,1.8,19.7,5.3,28.3c3.5,8.6,8.4,16,14.6,22.2c6.2,6.2,13.7,11.1,22.2,14.5c8.5,3.4,18,5.2,28.1,5.2
					c11.7,0,21.9-2.3,30.3-6.7c8.4-4.4,15.3-10.3,20.6-17.4l0.7-1L120,298L119.3,299z"></path>
				<path d="M267.2,213.8c-6.2-6.1-13.8-10.8-22.4-14.2c-8.6-3.4-18.1-5.1-28.2-5.1c-10.1,0-19.5,1.7-28.1,5.1
					c-8.6,3.4-16.1,8.2-22.3,14.2c-6.2,6.1-11.2,13.5-14.7,22c-3.5,8.5-5.3,18.1-5.3,28.5c0,10.2,1.8,19.7,5.3,28.3
					c3.5,8.6,8.4,16,14.7,22.2c6.2,6.2,13.8,11.1,22.3,14.5c8.5,3.4,18,5.2,28.1,5.2c10.1,0,19.6-1.7,28.2-5.2
					c8.6-3.4,16.2-8.3,22.4-14.5c6.3-6.2,11.2-13.7,14.8-22.2c3.6-8.6,5.4-18.1,5.4-28.3c0-10.3-1.8-19.9-5.4-28.5
					C278.5,227.3,273.5,219.9,267.2,213.8z M265.3,264.3c0,7.1-1.2,13.9-3.4,20.1c-2.3,6.3-5.6,11.8-9.8,16.4
					c-4.2,4.6-9.4,8.3-15.3,10.9c-6,2.6-12.7,4-20.1,4c-7.3,0-14-1.3-19.9-4c-5.9-2.6-11-6.3-15.2-10.9c-4.2-4.6-7.5-10.1-9.8-16.4
					c-2.3-6.2-3.4-13-3.4-20.1c0-7,1.2-13.7,3.4-19.9c2.3-6.2,5.5-11.7,9.7-16.4c4.1-4.7,9.2-8.4,15.2-11.1c5.9-2.7,12.6-4.1,20-4.1
					c7.5,0,14.2,1.4,20.2,4.1c5.9,2.7,11.1,6.4,15.3,11.1c4.2,4.7,7.5,10.2,9.8,16.4C264.1,250.6,265.3,257.3,265.3,264.3z"></path>
				<polygon points="309.9,331.1 330.5,331.1 330.5,272.7 389.9,272.7 389.9,254.6 330.5,254.6 330.5,216.2 393.9,216.2 
					393.9,197.8 309.9,197.8"></polygon>
				<polygon points="425.9,331.1 446.5,331.1 446.5,272.7 505.8,272.7 505.8,254.6 446.5,254.6 446.5,216.2 509.9,216.2 
					509.9,197.8 425.9,197.8"></polygon>
				<polygon points="562.3,271.2 624.1,271.2 624.1,253.2 562.3,253.2 562.3,216.2 628,216.2 628,197.8 541.7,197.8 541.7,331.1 
					630.7,331.1 630.7,312.5 562.3,312.5"></polygon>
				<polygon points="680.7,312.5 680.7,271.2 742.5,271.2 742.5,253.2 680.7,253.2 680.7,216.2 746.4,216.2 746.4,197.8 
					660.1,197.8 660.1,331.1 749.1,331.1 749.1,312.5"></polygon>
			</g>
		</g>
		<path d="M764.6,208.1c0-2.2,0.4-4.2,1.2-6.1c0.8-1.9,1.9-3.5,3.4-5c1.4-1.4,3.1-2.5,5-3.4c1.9-0.8,3.9-1.2,6.1-1.2
			s4.2,0.4,6.1,1.2c1.9,0.8,3.5,1.9,5,3.4c1.4,1.4,2.5,3.1,3.4,5c0.8,1.9,1.2,3.9,1.2,6.1c0,2.2-0.4,4.2-1.2,6.1
			c-0.8,1.9-1.9,3.5-3.4,5c-1.4,1.4-3.1,2.5-5,3.4c-1.9,0.8-3.9,1.2-6.1,1.2s-4.2-0.4-6.1-1.2c-1.9-0.8-3.5-1.9-5-3.4
			c-1.4-1.4-2.5-3.1-3.4-5C765,212.3,764.6,210.2,764.6,208.1z M768.9,208.1c0,1.6,0.3,3.2,0.9,4.6s1.4,2.7,2.4,3.8
			c1,1.1,2.2,1.9,3.6,2.5s2.8,0.9,4.4,0.9c1.6,0,3-0.3,4.4-0.9s2.6-1.5,3.6-2.5s1.9-2.3,2.4-3.8c0.6-1.4,0.9-3,0.9-4.6
			c0-1.6-0.3-3.2-0.9-4.6c-0.6-1.4-1.4-2.7-2.4-3.8c-1-1.1-2.2-1.9-3.6-2.5c-1.4-0.6-2.8-0.9-4.4-0.9c-1.6,0-3,0.3-4.4,0.9
			c-1.4,0.6-2.6,1.5-3.6,2.5c-1,1.1-1.9,2.3-2.4,3.8S768.9,206.4,768.9,208.1z M774.2,199.7h5.8c0.4,0,1.1,0,1.9,0.1
			c0.8,0.1,1.6,0.3,2.3,0.6c0.8,0.3,1.4,0.9,2,1.6c0.6,0.7,0.8,1.7,0.8,3c0,0.8-0.1,1.5-0.3,2.1c-0.2,0.5-0.5,1-0.9,1.3
			c-0.3,0.3-0.8,0.6-1.2,0.8c-0.5,0.2-0.9,0.3-1.4,0.4l4.2,6.5H783l-3.7-6.3h-0.7v6.3h-4.3V199.7z M778.5,206.5h1.7
			c0.3,0,0.5,0,0.8,0c0.3,0,0.6-0.1,0.8-0.2c0.3-0.1,0.5-0.3,0.6-0.5c0.2-0.2,0.2-0.6,0.2-1s-0.1-0.8-0.2-1
			c-0.2-0.2-0.4-0.4-0.6-0.5c-0.2-0.1-0.5-0.2-0.8-0.2c-0.3,0-0.6,0-0.8,0h-1.7V206.5z"></path>
	</g>
</g>
</svg>
