<?xml version="1.0" encoding="UTF-8"?>
<svg id="Layer_1" data-name="Layer 1" xmlns="http://www.w3.org/2000/svg" viewBox="0 0 512 75.36">
  <defs>
    <style>
      .cls-1 {
        fill-rule: evenodd;
      }
    </style>
  </defs>
  <path class="cls-1" d="M116.87,20.12h-38l-12.23,15.64c-1.77,2.26-4.53,3.71-7.62,3.71-5.34,0-9.68-4.33-9.68-9.68s4.33-9.68,9.68-9.68h19.85l10.15-13C91.27,4.22,89.21,0,85.55,0h-43.69C36.99,0,32.38,2.25,29.38,6.09l-.26.33c-4.48,5.73-4.48,13.77,0,19.5l4.43,5.66c1.13,1.44.1,3.55-1.73,3.55H15.39c-2.71,0-5.27,1.25-6.93,3.38L.94,48.13c-2.26,2.89-.2,7.11,3.46,7.11h47.02l-10.2,13.01c-2.26,2.89-.2,7.11,3.46,7.11h12.22c2.71,0,5.27-1.25,6.93-3.38l10.46-13.36c1.67-2.13,4.22-3.38,6.93-3.38h17.64c5.42,0,10.53-2.49,13.87-6.76l11.05-14.16c4.51-5.78.4-14.22-6.93-14.22h0Z"/>
  <path d="M202.97,17.48c.79,0,1.48.52,1.69,1.28l6.57,23.27c.24.86,1.47.85,1.7,0l6.29-23.24c.21-.77.9-1.3,1.7-1.3h8.52c.8,0,1.49.53,1.7,1.3l6.37,23.49c.23.86,1.45.87,1.69,0l6.65-23.52c.22-.76.91-1.28,1.69-1.28h6.32c1.17,0,2.01,1.12,1.69,2.25l-10.68,37.09c-.21.75-.91,1.27-1.69,1.27h-9.02c-.8,0-1.49-.53-1.7-1.3l-6.43-23.75c-.23-.87-1.46-.87-1.7,0l-6.43,23.75c-.21.77-.9,1.3-1.7,1.3h-9.03c-.78,0-1.47-.52-1.69-1.27l-10.76-37.09c-.33-1.13.51-2.24,1.68-2.24h6.56Z"/>
  <path d="M146.56,39.06h7.11c.84,0,1.57.6,1.72,1.43,1.07,5.82,5.92,9.37,13.22,9.37s12.18-3.09,12.18-8.28c0-4.63-3.09-6.01-8.69-7.15l-10.88-2.19c-9.91-2.03-14.78-6.9-14.78-15.03,0-10.15,8.69-17.22,21.44-17.22,12.03,0,20.69,6.14,22.33,15.33.19,1.07-.65,2.05-1.74,2.05h-7.24c-.78,0-1.47-.52-1.68-1.27-1.23-4.34-5.43-6.85-11.67-6.85-6.66,0-10.88,2.68-10.88,7.15,0,3.17,2.11,4.79,6.99,5.77l12.59,2.52c9.59,1.95,14.78,7.47,14.78,16.32,0,10.64-9.18,18.11-22.74,18.11s-22.46-7.31-23.8-18.09c-.13-1.05.69-1.97,1.75-1.97Z"/>
  <path d="M257.57,37.69c0-12.59,8.2-21.44,19.98-21.44s19.98,8.85,19.98,21.44c0,.73-.03,1.46-.07,2.17-.07.93-.83,1.65-1.76,1.65h-26.85c-.55,0-.98.51-.87,1.05,1.04,5.13,4.73,8.13,10.06,8.13,3.58,0,6.31-1.45,7.83-4.05.32-.55.89-.91,1.53-.91h7.14c1.24,0,2.11,1.26,1.64,2.42-2.75,6.68-9.4,10.98-18.13,10.98-12.1,0-20.47-8.85-20.47-21.44h0ZM286.08,33.54c.56,0,.98-.51.86-1.06-1.07-4.89-4.38-7.79-9.39-7.79s-8.45,2.84-9.55,7.79c-.12.55.3,1.06.86,1.06h17.22Z"/>
  <path d="M329.25,56.33v-.9c0-.39-.47-.58-.75-.31-2.65,2.53-6.72,4.01-11.6,4.01-9.01,0-15.03-5.36-15.03-12.99,0-3.41,1.22-6.26,3.49-8.37,2.6-2.27,6.58-3.9,15.19-5.12l7.31-1.06c.81-.08,1.14-.4,1.14-.98,0-1.71-.41-3-1.22-4.06-1.14-1.62-3.25-2.52-6.26-2.52-4.5,0-7.18,1.89-8.09,4.88-.23.76-.9,1.29-1.69,1.29h-6.56c-1.13,0-1.95-1.04-1.72-2.14,1.47-7.11,7.76-11.83,17.9-11.83,6.26,0,10.96,1.79,14.05,4.87,2.44,2.44,3.57,5.77,3.57,11.29v23.93c0,.97-.79,1.76-1.76,1.76h-6.23c-.97,0-1.76-.79-1.76-1.76ZM318.78,51.33c3.49,0,6.26-.97,7.96-2.76,1.46-1.46,2.27-3.41,2.27-6.66v-2.2c0-.59-.58-1.02-1.14-.84-.67.21-1.41.37-2.27.52l-3.98.65c-5.2.81-7.23,1.79-8.37,2.93-.89.89-1.3,1.95-1.3,3.33,0,3.17,2.6,5.04,6.82,5.04h0Z"/>
  <path d="M439.66,54.33c-2.6,3-6.99,4.79-12.34,4.79-9.01,0-15.03-5.36-15.03-12.99,0-3.41,1.22-6.26,3.49-8.37,2.6-2.27,6.58-3.9,15.19-5.12l7.31-1.06c.81-.08,1.14-.4,1.14-.98,0-1.71-.4-3-1.22-4.06-1.13-1.62-3.25-2.52-6.26-2.52-4.5,0-7.18,1.89-8.09,4.88-.23.76-.9,1.29-1.69,1.29h-6.56c-1.13,0-1.95-1.04-1.72-2.14,1.47-7.11,7.76-11.83,17.9-11.83,6.26,0,10.96,1.79,14.05,4.87,2.44,2.44,3.57,5.77,3.57,11.29v23.93c0,.97-.79,1.76-1.76,1.76h-6.23c-.97,0-1.76-.79-1.76-1.76v-1.99ZM429.19,51.33c3.49,0,6.26-.97,7.96-2.76,1.46-1.46,2.27-3.41,2.27-6.66v-2.2c0-.59-.58-1.02-1.14-.84-.67.21-1.41.37-2.27.52l-3.98.65c-5.2.81-7.23,1.79-8.37,2.93-.89.89-1.3,1.95-1.3,3.33,0,3.17,2.6,5.04,6.82,5.04h0Z"/>
  <path d="M465.36,44.43c0,2.19.33,3.33.98,4.22.81,1.14,2.11,1.62,3.82,1.62h.74c.98,0,1.77.78,1.77,1.76v4.61c0,.94-.73,1.71-1.67,1.76-1.08.05-2.39.1-4.09.15-4.46.16-7.39-1.13-9.34-3.25-1.62-1.71-2.44-4.14-2.44-8.61V5.9c0-.97.79-1.76,1.76-1.76h6.71c.97,0,1.76.79,1.76,1.76v38.52Z"/>
  <path d="M376.05,17.38c.97,0,1.76.79,1.76,1.76v1.9c3.17-3.09,7.47-4.79,12.51-4.79,10.88,0,18.36,8.85,18.36,21.44s-7.79,21.44-19.17,21.44c-4.47,0-8.37-1.46-11.29-4.14v18.62c0,.97-.79,1.76-1.76,1.76h-6.71c-.97,0-1.76-.79-1.76-1.76V19.14c0-.97.79-1.76,1.76-1.76h6.3ZM388.12,50.68c6.33,0,10.32-4.95,10.32-12.99s-3.98-12.99-10.32-12.99-10.32,4.95-10.32,12.99,3.98,12.99,10.32,12.99Z"/>
  <path d="M477.12,44.35h6.79c.77,0,1.47.49,1.68,1.24.91,3.26,4.07,5.26,8.78,5.26,4.46,0,7.39-1.62,7.39-4.3s-2.03-3.57-5.85-4.31l-5.93-1.06c-8.77-1.62-13.4-5.36-13.4-12.1,0-7.55,6.82-12.83,16.81-12.83,9.03,0,15.73,4.31,17.36,10.89.28,1.11-.57,2.19-1.71,2.19h-6.84c-.75,0-1.45-.45-1.7-1.15-.91-2.53-3.48-3.96-7.1-3.96-4.06,0-6.58,1.38-6.58,3.9,0,2.2,1.95,3,4.95,3.49l6.9,1.13c7.79,1.3,13.32,5.12,13.32,12.83s-7.31,13.56-17.62,13.56-17.46-5.05-18.98-12.66c-.22-1.1.61-2.12,1.72-2.12Z"/>
  <path d="M344.72,5.9c0-.97.79-1.76,1.76-1.76h6.71c.97,0,1.76.79,1.76,1.76v10.6c0,.48.4.88.88.88h4.68c.97,0,1.76.79,1.76,1.76v4.11c0,.97-.79,1.76-1.76,1.76h-4.68c-.48,0-.88.4-.88.88v18.53c0,2.19.32,3.33.98,4.22.81,1.14,2.11,1.62,3.82,1.62h.74c.98,0,1.77.78,1.77,1.76v4.61c0,.94-.73,1.71-1.67,1.76-1.08.05-2.39.1-4.1.15-4.46.16-7.39-1.13-9.34-3.25-1.62-1.71-2.44-4.14-2.44-8.61V5.9Z"/>
</svg>