<svg width="211" height="44" viewBox="0 0 211 44" fill="none" xmlns="http://www.w3.org/2000/svg"><g clip-path="url(#clip0_152_4375)"><g clip-path="url(#clip1_152_4375)" fill="#3B3941"><path d="M74.4547 33.7628c.0428-.7968-.029-1.5956-.2131-2.372a.715187.715187 0 00-.2596-.1865.713811.713811 0 00-.3149-.0544h-.2873c-.0332-.0387-.0515-.088-.0515-.139 0-.051.0183-.1003.0515-.139h2.511c.0352.0378.0548.0874.0548.139 0 .0516-.0196.1013-.0548.139h-.2779c-.1114-.0054-.2223.0173-.3227.0658-.1003.0486-.1869.1215-.2518.2122-.1414.7729-.1942 1.5593-.1575 2.3442v1.2972c.0883.9948-.1993 1.9865-.8061 2.7797-.2914.2798-.6357.4986-1.0129.6434-.3771.1448-.7793.2127-1.1831.1998-.7684.0495-1.5296-.1736-2.1496-.6301-.3487-.3518-.6132-.7779-.7737-1.2465-.1605-.4686-.2128-.9674-.1529-1.4591v-2.7797c0-1.1953 0-1.3898-.6857-1.4454h-.2872c-.0333-.0387-.0516-.088-.0516-.139 0-.051.0183-.1003.0516-.139h2.8353c.0333.0387.0516.088.0516.139 0 .051-.0183.1003-.0516.139h-.278c-.6671.0556-.6856.2501-.6856 1.4454v2.5018c0 1.8531.5744 3.0669 2.3349 3.0669 1.7605 0 2.2979-1.3065 2.2979-3.0484v-1.3343h.1205zM89.4558 36.5147v2.0106c-.0161.0422-.0458.0778-.0844.1013-.0385.0235-.0838.0335-.1287.0285-.139-.1946-.4725-.593-1.4732-1.7327l-2.6593-3.0299c-.2872-.3892-1.0192-1.3157-1.3064-1.5659-.0498.2437-.0685.4928-.0556.7413v2.5017c-.0355.7997.0362 1.6006.2131 2.3813.0764.0751.1681.133.2688.1698.1006.0367.208.0515.3149.0433h.3521c.0379.0382.0592.0898.0592.1436s-.0213.1054-.0592.1436h-2.5388c-.0358-.0392-.0556-.0905-.0556-.1436 0-.0531.0198-.1044.0556-.1436h.3058c.0972.0047.1942-.0138.2828-.0541.0887-.0403.1664-.1012.2268-.1776.1339-.78.1836-1.5721.1482-2.3627v-3.3079c.0187-.1473.006-.2969-.0371-.439-.0431-.142-.1157-.2735-.213-.3856-.2033-.1644-.4526-.2616-.7135-.278h-.1946c-.0379-.0382-.0591-.0898-.0591-.1436s.0212-.1054.0591-.1436h1.2972c.1758.0128.3524.0128.5282 0 .5662.8973 1.2212 1.7354 1.955 2.5017l1.1119 1.2509c.7969.9266 1.3528 1.5288 1.8532 2.0755.05-.1554.0658-.3197.0463-.4818v-2.4554c.0399-.7978-.0381-1.5971-.2317-2.372-.1997-.1651-.4548-.248-.7134-.2317h-.1946c-.0199-.0182-.0359-.0404-.0468-.0651-.0109-.0247-.0165-.0515-.0165-.0785 0-.027.0056-.0537.0165-.0785.0109-.0247.0269-.0469.0468-.0651h2.5295c.038.0382.0592.0898.0592.1436s-.0212.1054-.0592.1436h-.1575c-.2349.002-.4615.0874-.6393.2409-.1596.7768-.2187 1.5709-.1761 2.3628v2.7797l.0834-.0278zM97.9895 32.6324c0-1.2138 0-1.4177-.7042-1.4733h-.2872c-.034-.0401-.0526-.091-.0526-.1436 0-.0526.0186-.1035.0526-.1436h2.8723c.0324.0409.0499.0915.0499.1436 0 .0521-.0175.1027-.0499.1436h-.2872c-.6764.0556-.7042.2502-.7042 1.4733v4.0861c0 1.2138 0 1.3806.7042 1.4548h.2872c.034.0401.0526.091.0526.1436 0 .0526-.0186.1034-.0526.1436h-2.8723c-.034-.0402-.0526-.091-.0526-.1436 0-.0526.0186-.1035.0526-.1436h.2872c.7042-.0371.7042-.241.7042-1.4548v-4.0861zM107.311 32.1042c-.035-.2332-.144-.449-.311-.6158s-.383-.2757-.616-.3107h-.204c-.02-.0183-.035-.0404-.046-.0652-.011-.0247-.017-.0514-.017-.0784 0-.0271.006-.0538.017-.0785.011-.0247.026-.0469.046-.0652h2.586c.037.0382.059.0899.059.1437s-.022.1054-.059.1436h-.177c-.435.0556-.528.1204-.537.2131.159.5485.351 1.0868.575 1.6122.528 1.3343 1.056 2.65 1.63 3.9657.352-.7597.834-1.9365 1.103-2.548.333-.7783.871-2.0755 1.065-2.5759.062-.1404.097-.2914.102-.4447 0-.0834-.111-.1761-.518-.2132h-.204c-.038-.0381-.06-.0898-.06-.1436s.022-.1054.06-.1436H114.112c.032.0409.05.0915.05.1436 0 .0521-.018.1027-.05.1436h-.343c-.126.0087-.248.05-.354.1198-.105.0698-.191.1659-.248.2787-.475.8571-.905 1.7385-1.288 2.6407l-.621 1.4084c-.463 1.0563-1.001 2.3905-1.195 3.0021-.04.0102-.081.0102-.121 0-.058.0104-.118.0104-.176 0-.145-.5198-.321-1.0303-.528-1.5289l-1.927-5.0035zM121.154 32.5768c0-1.1953 0-1.3713-.704-1.4454h-.186c-.032-.0409-.05-.0915-.05-.1437 0-.0521.018-.1027.05-.1436H123.776c.515.0259 1.032.0259 1.547 0 .092.5056.154 1.0161.186 1.5289-.041.0323-.092.0499-.144.0499-.052 0-.103-.0176-.144-.0499-.018-.2487-.111-.4859-.267-.6809-.155-.195-.365-.3388-.604-.4125-.367-.0595-.74-.0813-1.111-.0649h-.825c-.343 0-.343 0-.343.4633v2.2979c0 .3243 0 .3243.38.3243h.667c.326.0131.653-.0118.973-.0741.083-.0278.155-.0815.205-.1533.05-.0717.075-.1577.073-.2451l.093-.4726c.04-.0364.093-.0566.148-.0566.055 0 .107.0202.148.0566 0 .278-.046.7227-.046 1.1582 0 .4355.046.8525.046 1.1026-.041.0365-.093.0567-.148.0567-.055 0-.108-.0202-.148-.0567l-.102-.4447c-.008-.0998-.045-.195-.108-.2729-.063-.0778-.148-.1345-.244-.1626-.306-.0565-.617-.0752-.927-.0556h-.63c-.343 0-.38 0-.38.315v1.6215c-.065.4111.01.8321.213 1.1953.41.27.909.3666 1.39.2687.498.0521 1.001-.0081 1.473-.176.359-.2984.639-.6802.816-1.1119.049-.0266.107-.0328.16-.0172.054.0156.1.0518.127.1006-.127.5451-.301 1.0783-.519 1.5937h-5.68c-.034-.0402-.052-.091-.052-.1436 0-.0526.018-.1035.052-.1437h.38c.658-.0555.713-.2316.713-1.4361v-4.1696h.01zM133.57 32.5768c0-1.0934 0-1.2879-.501-1.3435h-.37c-.02-.0183-.036-.0404-.047-.0652-.011-.0247-.016-.0514-.016-.0784 0-.0271.005-.0538.016-.0785s.027-.0469.047-.0652c.639-.0556 1.436-.0926 2.557-.0926.658-.0432 1.316.0745 1.918.3428.293.1511.537.3836.701.6696.164.2859.243.6132.226.9426-.019.4272-.165.8389-.422 1.1812-.256.3422-.61.5991-1.014.7368-.018.0469-.022.0978-.012.147.01.0491.033.0945.067.131.606 1.1301 1.384 2.1586 2.307 3.0484.224.1908.504.3045.797.3243.014.0083.025.0199.032.0337.008.0138.012.0293.012.0451s-.004.0313-.012.0451c-.007.0137-.018.0253-.032.0336-.163.0412-.332.06-.5.0556-.982 0-1.566-.2872-2.372-1.4454-.297-.4262-.769-1.2138-1.131-1.7327-.085-.1346-.207-.2414-.352-.3073-.145-.0659-.306-.0879-.463-.0633-.519 0-.537 0-.537.2501v1.4455c0 1.2045 0 1.3435.685 1.4362h.241c.034.0401.053.091.053.1436 0 .0526-.019.1035-.053.1436h-2.798c-.034-.0401-.053-.091-.053-.1436 0-.0526.019-.1035.053-.1436h.287c.667-.0834.686-.2317.686-1.4362v-4.1603zm.926 1.64c-.026.1253-.026.2546 0 .3799.257.0677.524.0865.788.0556.417.0332.834-.0709 1.186-.2965.204-.1733.364-.3937.464-.6424.1-.2486.138-.5179.11-.7845.012-.2427-.028-.4851-.119-.7108-.09-.2256-.227-.4293-.403-.5971-.176-.1678-.386-.2959-.615-.3756-.23-.0797-.474-.1091-.716-.0863-.713 0-.741 0-.741.3707v2.687h.046zM147.45 38.6458c-.623.0157-1.24-.1312-1.788-.4262-.184-.5155-.287-1.0561-.306-1.603.037-.0352.087-.0547.139-.0547.051 0 .101.0195.139.0547.084.468.326.8931.684 1.2048.359.3118.814.4915 1.289.5094.183.0182.368-.0023.542-.0603.175-.058.335-.1522.471-.2764.135-.1242.243-.2756.316-.4443.073-.1687.11-.3509.108-.5348.014-.3276-.066-.6525-.23-.9364-.164-.284-.406-.5152-.697-.6665l-1.093-.7135c-.355-.1996-.655-.4847-.872-.8293-.216-.3447-.344-.738-.37-1.1443.007-.2891.074-.5736.198-.835.123-.2615.301-.4941.52-.6827.219-.1887.475-.3292.752-.4125.277-.0833.569-.1076.856-.0712.359.0067.717.0565 1.065.1483.129.0398.263.0616.399.0648.133.4546.201.9255.203 1.3992-.04.0339-.091.0526-.143.0526-.053 0-.104-.0187-.144-.0526-.05-.3733-.24-.7139-.53-.9542-.29-.2403-.659-.3627-1.036-.343-.177-.0239-.357-.0079-.528.0467-.17.0546-.326.1464-.457.2689-.13.1224-.232.2724-.297.439-.065.1666-.092.3456-.08.524.033.2972.138.5816.308.8275.17.2459.399.4456.665.5809l.927.5745c.414.2093.764.5262 1.013.9175.25.3913.389.8425.404 1.3063-.004.3058-.072.6072-.201.8846-.129.2774-.315.5244-.546.7248-.231.2004-.502.3496-.794.438-.293.0883-.601.1136-.905.0744M157.707 32.6324c0-1.2138 0-1.4177-.704-1.4733h-.288c-.033-.0401-.052-.091-.052-.1436 0-.0526.019-.1035.052-.1436h2.873c.034.0401.052.091.052.1436 0 .0526-.018.1035-.052.1436h-.287c-.677.0556-.695.2502-.695 1.4733v4.0861c0 1.2138 0 1.3806.695 1.4548h.287c.034.0401.052.091.052.1436 0 .0526-.018.1034-.052.1436h-2.873c-.033-.0402-.052-.091-.052-.1436 0-.0526.019-.1035.052-.1436h.288c.676-.0834.704-.241.704-1.4548v-4.0861zM170.457 36.7371c0 1.2045 0 1.3806.685 1.4362h.371c.032.0409.05.0915.05.1436 0 .0521-.018.1027-.05.1436H168.418c-.038-.0382-.059-.0898-.059-.1436s.021-.1054.059-.1436h.417c.658-.0556.713-.2317.713-1.4362v-5.0869c0-.3521 0-.3706-.342-.3706h-.63c-.488-.0535-.981.047-1.409.2872-.231.2226-.409.4951-.519.7969-.05.027-.109.0335-.165.0179-.055-.0155-.102-.0518-.131-.1013.187-.5599.333-1.1328.435-1.7142.072-.0288.151-.0288.223 0 .074.3707.454.3521.982.3521h4.633c.62 0 .722 0 .926-.3243.032-.017.067-.0259.102-.0259.036 0 .071.0089.102.0259-.132.5708-.192 1.1562-.176 1.742-.04.0385-.093.06-.148.06-.056 0-.109-.0215-.148-.06-.009-.3008-.109-.5918-.288-.8339-.405-.2293-.87-.3295-1.334-.2873h-.815c-.343 0-.334 0-.334.3892v5.1147l-.055.0185zM183.54 36.7186c0 1.223.065 1.4084.685 1.4547h.436c.034.0401.052.091.052.1436 0 .0526-.018.1035-.052.1436h-3.067c-.034-.0401-.053-.091-.053-.1436 0-.0526.019-.1035.053-.1436h.361c.667-.0649.686-.2317.686-1.4547v-.5838c.038-.5022-.089-1.0032-.361-1.4269l-1.353-2.6407c-.389-.7598-.565-.8154-.927-.871l-.324-.0556c-.036-.0392-.056-.0904-.056-.1436 0-.0531.02-.1043.056-.1436h2.566c.02.0182.036.0404.047.0651.011.0248.017.0515.017.0785 0 .027-.006.0538-.017.0785-.011.0247-.027.0469-.047.0651h-.148c-.398.0556-.482.1112-.482.2039.091.3184.209.6284.353.9265.426.8525.852 1.7513 1.297 2.5481.352-.6115.732-1.2787 1.075-1.9458.288-.4855.535-.9937.741-1.5196-.063-.0636-.138-.1131-.221-.1451-.083-.0319-.172-.0457-.261-.0402h-.204c-.02-.0182-.036-.0404-.047-.0651-.011-.0247-.016-.0515-.016-.0785 0-.027.005-.0537.016-.0785.011-.0247.027-.0469.047-.0651h2.168c.02.0182.036.0404.047.0651.011.0248.017.0515.017.0785 0 .027-.006.0538-.017.0785-.011.0247-.027.0469-.047.0651l-.324.0556c-.593.1019-.927.8247-1.52 1.8532l-.722 1.2508c-.407.5278-.599 1.1898-.538 1.8532v.593l.084-.0556zM29.7662 6.10473c0-.0556-1.8531-.92657-1.8531-.92657-2.8793-.47348-5.8307-.23813-8.5986.68566-2.7678-.92416-5.7192-1.15951-8.5986-.68566 0 0-1.77896.92657-1.85309.92657L6.17576 12.1923a.185228.185228 0 00-.03635.1084c-.00039.039.01158.0772.03418.1091.02261.0318.0547.0557.0917.0683.037.0125.07701.013.11431.0014a72.920706 72.920706 0 0112.972-1.0377c4.3465-.0383 8.6878.3121 12.9719 1.047.0388.0146.0813.0158.1209.0034.0395-.0124.0737-.0377.0972-.0719.0234-.0341.0348-.0751.0322-.1164-.0026-.0414-.0189-.0806-.0464-.1116l-2.7612-6.08757zM18.6937 10.4874c-2.9928-.1483-8.1538-.1483-10.73893.7783l1.85314-4.63283 1.25089-.66713-1.34355 3.85453c2.97775-.65943 6.07625-.52846 8.98775.37993v.2872h-.0093zm1.2601 0v-.2872c2.9115-.90882 6.01-1.03979 8.9878-.37993l-1.3714-3.79893 1.2972.67639 1.8532 4.63287c-2.4554-.9266-7.6164-.9266-10.7482-.8061"/><path d="M36.4653 3.85311h-.1204c-11.1996-2.39065-22.7777-2.39065-33.97734 0h-.12045c-.44092.116-.83137.37396-1.11105.73402-.279671.36006-.433009.80219-.436322 1.2581v3.02062C.699738 30.7236 14.1999 39.5446 18.3046 41.7313c.3094.1713.6563.2635 1.0099.2687.354-.0028.7014-.0952 1.01-.2687 4.1232-2.1867 17.6048-11.0447 17.6048-32.85619V5.84523c-.001-.44444-.1435-.87702-.4066-1.23515a2.093972 2.093972 0 00-1.0574-.75697zM18.5918 40.4804c-4.568-2.5203-13.73177-9.6641-16.09452-24.3039h.11119a81.181285 81.181285 0 0115.98333-1.7327v26.0366zm14.4267-14.0375c-.9057 1.8788-1.9852 3.6687-3.2245 5.3463a32.621663 32.621663 0 01-3.2244 3.7063v-5.8374l-3.2245-2.1497v10.8594c-1.0238.7791-2.1013 1.4851-3.2245 2.1126V25.3588l3.2245 2.1496v-7.5052l3.2245 2.1497v-7.4126c1.0748.0927 2.1589.2038 3.2244.3428v9.2101l3.2245 2.1497V15.5742c1.0377.1761 2.057.3243 3.0762.5745h.1112c-.5579 3.5588-1.6317 7.0173-3.1874 10.2664v.0278zm-12.9071-8.5893v-3.4283c1.0748 0 2.1496 0 3.2244.0926v5.4853l-3.2244-2.1496zm16.6782-8.97849c.0027 1.88289-.1087 3.76419-.3335 5.63359-11.2708-2.3669-22.9104-2.3669-34.18119 0a46.532568 46.532568 0 01-.33357-5.64285V5.84523a.926598.926598 0 01.1735-.52111.92659.92659 0 01.43804-.33133c11.03162-2.35487 22.43602-2.35487 33.46772 0 .1962.04049.3724.14738.499.30266.1266.15528.1958.34945.1959.54978v3.02062l.0741.00926z"/><path d="M29.794 24.2933l-3.2337-2.1497v7.5145l3.2337 2.1496v-7.5144zM11.6889 29.028c1.1669-.0018 2.3071-.3495 3.2765-.9992.9694-.6497 1.7245-1.5721 2.1698-2.6508.4453-1.0786.5609-2.2651.3321-3.4094-.2288-1.1443-.7917-2.1951-1.6175-3.0196s-1.8775-1.3858-3.0221-1.6128c-1.1447-.2269-2.331-.1095-3.40894.3375-1.07795.447-1.99921 1.2035-2.64735 2.1739-.64814.9704-.99406 2.1112-.99407 3.2782.00245 1.5646.62508 3.0644 1.73144 4.1708 1.10635 1.1063 2.60622 1.729 4.17082 1.7314h.0093zm1.0562-.8617c.5843-.631 1.0601-1.3542 1.4084-2.1404.4949.1055.9812.248 1.4547.4262-.7377.8733-1.7449 1.4763-2.8631 1.7142zm3.3079-2.3442c-.5317-.2148-1.0802-.3853-1.64-.5096.1886-.6009.2976-1.224.3243-1.8532h2.0662c-.0606.8283-.3213 1.6296-.7598 2.335l.0093.0278zm-.0093-5.439c.4385.7054.6992 1.5066.7598 2.335h-2.0384c-.0268-.6293-.1358-1.2523-.3243-1.8532.5596-.1248 1.1081-.2953 1.64-.5096l-.0371.0278zm-.4077-.6486c-.4736.178-.9599.3205-1.4547.4262a7.80035 7.80035 0 00-1.4362-2.0847c1.1191.241 2.1263.8473 2.8631 1.7234l.0278-.0649zm-3.595-1.3065a7.281205 7.281205 0 011.3527 1.9366c-.4484.0629-.9001.1-1.3527.1112v-2.057.0092zm0 2.7798c.5459-.0117 1.0906-.0581 1.6307-.139.1824.5452.2914 1.1123.3243 1.6863h-1.9365V21.217l-.0185-.0092zm0 2.2793h1.955c-.0326.571-.1417 1.1351-.3243 1.6771-.5397-.085-1.0845-.1346-1.6307-.1482V23.4871zm0 2.2794c.4495.0126.898.0497 1.3435.1112-.3398.7114-.7936 1.3624-1.3435 1.9272V25.7665zm-4.30859.6764c.47373-.1778.95996-.3202 1.45471-.4262.3471.7896.82308 1.516 1.40838 2.1496-1.1227-.2385-2.13362-.845-2.87236-1.7234h.00927zm3.55799 1.362c-.54-.5654-.9872-1.2128-1.32496-1.918.44556-.061.89406-.0981 1.34356-.1112v2.0385l-.0186-.0093zm0-2.7797c-.5367.0126-1.0721.059-1.60293.139a6.281753 6.281753 0 01-.3243-1.6863h1.95503v1.5381l-.0278.0092zm0-2.2793H9.36317a6.300763 6.300763 0 01.3243-1.6864c.53673.0841 1.07833.1337 1.62153.1483v1.5381h-.0186zm0-2.2794c-.4434-.0125-.8857-.0496-1.32496-.1112A7.360274 7.360274 0 0111.309 18.428v2.0385h-.0186zm-.6764-2.3905c-.5853.6335-1.06125 1.36-1.40835 2.1496-.49474-.106-.98097-.2485-1.45471-.4262.73921-.8779 1.74992-1.4843 2.87236-1.7234h-.0093zm-3.31708 2.3442c.53191.2142 1.0804.3846 1.64003.5096a7.161284 7.161284 0 00-.33357 1.8531H6.5464c.05953-.8285.32034-1.63.75978-2.3349l-.00926-.0278zm-.75052 3.0762h2.06625c.027.6292.13602 1.2522.3243 1.8531-.55971.1247-1.10823.2951-1.64003.5096-.43979-.7047-.70062-1.5063-.75979-2.3349M48.659 10.2743c0-2.92799-.2595-3.24302-1.8532-3.37274l-.6578-.0556c-.0686-.09906-.1005-.21888-.0904-.33891.0102-.12003.0618-.2328.146-.31895 1.5566.05559 2.4554.07412 3.6043.07412 1.149 0 1.9551 0 3.0021-.08339.0842.08616.1358.19892.1459.31895.0102.12003-.0218.23986-.0903.33892l-.3984.05559c-1.5567.21311-1.603.58374-1.603 3.37271v9.7846c.0871 1.7298-.1325 3.4613-.6486 5.1146-.3857 1.0814-1.0876 2.0218-2.0145 2.6992-.927.6775-2.0361 1.0606-3.1835 1.0998-.3151 0-1.1305 0-1.1305-.556-.0028-.2766.0868-.5463.2547-.7662.1678-.2199.4043-.3774.6719-.4476.3305.0021.6587.0552.9729.1575.3573.1122.7283.1745 1.1026.1854.2261.0065.4488-.0555.639-.1779.1901-.1224.3388-.2994.4266-.5078.6022-1.2416.6856-5.1888.6856-6.6157v-9.9606h.0186zM52.7637 16.4823c-.0218-1.0421.1685-2.0778.5592-3.0441.3908-.9663.974-1.8431 1.714-2.5771.7401-.734 1.6216-1.30988 2.5911-1.69269a7.690621 7.690621 0 013.0486-.53419c1.0205-.0566 2.0416.10116 2.9974.46312.9559.36195 1.8254.92006 2.5525 1.63846.7271.7183 1.2956 1.581 1.6691 2.5324.3735.9514.5436 1.9705.4993 2.9917.0239 1.0223-.1591 2.0388-.5379 2.9886a7.590461 7.590461 0 01-1.6666 2.5384c-.7209.7253-1.581 1.2973-2.5285 1.6818-.9475.3845-1.9629.5736-2.9853.5558-4.9386 0-7.9129-3.5395-7.9129-7.5422zm13.4074.4632c0-3.7062-1.6215-7.62562-5.8651-7.62562-2.3165 0-5.3186 1.58442-5.3186 6.48602.0093 3.2522 1.603 7.5052 5.9394 7.5052 2.6685 0 5.2073-2.0014 5.2073-6.3841M73.454 16.4823c-1.0656 0-1.1119 0-1.1119.7134v3.1318c0 2.335.1112 2.65 1.3528 2.7797l.6393.0649c.0648.0781.1003.1765.1003.278 0 .1015-.0355.1998-.1003.2779-1.2045 0-1.955-.0648-2.7797-.0648-.8246 0-1.7141 0-2.5759.0648-.0647-.0781-.1002-.1764-.1002-.2779 0-.1015.0355-.1999.1002-.278l.2873-.0649c1.2416-.2223 1.2879-.4447 1.2879-2.7797V12.322c0-2.33498-.1575-2.71487-1.3157-2.77973h-.5745c-.0648-.07814-.1002-.17646-.1002-.27797 0-.10151.0354-.19983.1002-.27797 1.0934 0 1.8531.06486 2.7797.06486.9266 0 1.6215 0 2.5759-.06486.0648.07814.1002.17646.1002.27797 0 .10151-.0354.19983-.1002.27797h-.4262c-1.288.12972-1.3343.46333-1.3343 2.77973v2.5573c0 .6857 0 .7135 1.1119.7135h6.3563c1.0655 0 1.1118 0 1.1118-.7135V12.322c0-2.33498 0-2.66854-1.3528-2.77973h-.4262c-.0648-.07814-.1002-.17646-.1002-.27797 0-.10151.0354-.19983.1002-.27797 1.0192 0 1.779.06486 2.6871.06486.908 0 1.6215 0 2.6222-.06486a.445015.445015 0 01.0975.27797c0 .10105-.0344.19909-.0975.27797l-.278-.01853c-1.2879.12972-1.3343.46328-1.3343 2.77966v8.0056c0 2.335 0 2.6222 1.3343 2.7797l.5374.0649c.0648.0781.1003.1764.1003.2779 0 .1016-.0355.1999-.1003.278-1.0656 0-1.8531-.0648-2.687-.0648-.834 0-1.7142 0-2.6871.0648a.4262.4262 0 01-.1031-.278c0-.102.0366-.2006.1031-.2779l.4262-.0649c1.3528-.2224 1.3528-.4447 1.3528-2.7797v-3.1133c0-.6671 0-.7134-1.1119-.7134H73.454zM99.8427 19.8828c0 .6671 0 3.3171.0648 3.8916-.0341.0818-.0945.15-.1717.1936-.0772.0436-.1668.0603-.2545.0473-.2687-.3799-.9266-1.1583-2.8446-3.3542l-5.1888-5.8745c-.6022-.6856-2.1125-2.511-2.5758-3.0021-.1125.4733-.1623.9593-.1483 1.4455v4.846c0 1.047 0 3.9379.3985 4.6328.1482.1486.3268.2636.5234.3371.1967.0736.4068.1039.6162.0891l.6857.0649c.0703.0754.1094.1748.1094.2779 0 .1032-.0391.2026-.1094.278-1.0007 0-1.779-.0648-2.6037-.0648-.8246 0-1.5381 0-2.3164.0648-.0684-.0764-.1062-.1754-.1062-.278 0-.1025.0378-.2015.1062-.2779l.6023-.0649c.187.0073.3731-.0291.5436-.1063.1705-.0772.3206-.1931.4385-.3384.2255-1.5241.2877-3.0678.1854-4.6051v-6.4304c.0364-.2867.0115-.5779-.0732-.8543-.0846-.2763-.2271-.5315-.4179-.7486-.3887-.31229-.8645-.49676-1.3621-.52818h-.3799c-.037-.03624-.0663-.07949-.0864-.12722-.02-.04773-.0304-.09898-.0304-.15076 0-.05177.0104-.10302.0304-.15075.0201-.04773.0494-.09098.0864-.12722.9266.06486 2.1126.06486 2.511.06486.3409.00318.6815-.0185 1.0193-.06486.4447 1.13973 3.0669 4.06763 3.7989 4.89233l2.1589 2.4183c1.5288 1.7142 2.6222 2.9558 3.7063 4.0213.0956-.2989.1272-.6146.0926-.9266v-4.8088c0-1.0471 0-3.938-.4447-4.63289-.3839-.29368-.8612-.4385-1.3435-.40769h-.3799c-.0395-.03479-.0711-.07756-.0927-.12549a.371113.371113 0 01-.0328-.15249c0-.05258.0112-.10456.0328-.15249a.369523.369523 0 01.0927-.12548c1.0192 0 1.779.06486 2.6221.06486.8428 0 1.5288 0 2.2888-.06486.037.03624.066.07949.086.12722.02.04773.031.09898.031.15075 0 .05178-.011.10303-.031.15076-.02.04773-.049.09098-.086.12722h-.315c-.455.00594-.894.16969-1.242.46328-.3797.7968-.3333 3.558-.3333 4.5773v5.3185h.139zM105.68 24.0153c-1.207.0322-2.402-.2521-3.465-.8246-.362-1-.565-2.0505-.603-3.1133.064-.0784.156-.1291.256-.1412s.201.0153.282.0763c.333 1.1305 1.241 3.3172 3.827 3.3172.355.0353.713-.0049 1.051-.1178.339-.113.649-.2963.912-.5378.262-.2415.471-.5358.611-.8635.141-.3278.211-.6816.205-1.0383.024-.6423-.138-1.2778-.467-1.8301-.329-.5524-.81-.9979-1.386-1.2831l-2.112-1.3806c-.687-.3881-1.266-.9413-1.685-1.6095-.419-.6681-.665-1.4302-.715-2.2173 0-2.1125 1.649-3.8267 4.54-3.8267.698.01208 1.392.10852 2.066.28724.252.07849.514.12214.779.12972.261.88144.395 1.79554.398 2.71484-.071.0729-.165.119-.267.1309-.101.0118-.203-.0115-.289-.066-.099-.7203-.464-1.3775-1.023-1.84223-.559-.46473-1.271-.70333-1.998-.66881-2.177 0-2.65 1.44544-2.65 2.47394.053.581.251 1.1396.574 1.625.324.4855.764.8824 1.28 1.1547l1.779 1.1119c.802.3984 1.484 1.0049 1.973 1.7561.489.7513.767 1.6199.806 2.5154 0 2.4461-1.853 4.1139-4.735 4.1139M123.618 15.148c-1.269 0-1.315.0556-1.315.8432v3.7063c0 2.7797.129 3.1411 1.603 3.2986l.769.0834c.07.0984.103.2186.093.3391-.01.1205-.063.2335-.149.3187-1.427-.0556-2.316-.0741-3.345-.0741-1.028 0-2.029.0556-3.057.0741-.086-.0852-.139-.1982-.149-.3187-.01-.1205.023-.2407.093-.3391l.445-.0834c1.473-.2687 1.529-.5282 1.529-3.2986v-9.4788c0-2.77972-.186-3.21521-1.557-3.31713l-.686-.0556c-.068-.09906-.1-.21888-.09-.33891.01-.12003.062-.23279.146-.31895 1.288 0 2.187.07413 3.326.07413 1.14 0 1.927 0 3.058-.07413.084.08616.136.19892.146.31895.01.12003-.022.23985-.091.33891l-.5.0556c-1.529.15752-1.575.55594-1.575 3.31713v3.0299c0 .8154.056.8431 1.316.8431h7.542c1.269 0 1.316 0 1.316-.8431v-3.0299c0-2.77972-.056-3.15961-1.613-3.31713l-.5-.0556c-.07-.09802-.103-.21723-.095-.33723.009-.12001.059-.23335.141-.32063 1.214.05559 2.113.07413 3.188.07413 1.075 0 1.927 0 3.113-.07413.084.08616.136.19892.146.31895.01.12003-.022.23985-.09.33891l-.556.0556c-1.529.15752-1.585.55594-1.585 3.31713v9.4881c0 2.7797.056 3.1132 1.585 3.2985l.63.0834c.07.0985.103.2187.093.3392-.01.1205-.063.2335-.149.3187-1.26-.0556-2.159-.0741-3.187-.0741-1.029 0-2.029 0-3.188.0741-.085-.0852-.138-.1982-.148-.3187-.01-.1205.023-.2407.093-.3392l.5-.0834c1.612-.2687 1.612-.5281 1.612-3.2985v-3.7063c0-.7876-.055-.8432-1.315-.8432h-7.543v-.0093z"/><path d="M136.683 16.4823c-.022-1.0421.169-2.0778.559-3.0441.391-.9663.974-1.8431 1.714-2.5771.74-.734 1.622-1.30988 2.591-1.69269.97-.38282 2.007-.56456 3.049-.53419 1.02-.0566 2.042.10116 2.997.46312.956.36195 1.826.92006 2.553 1.63846.727.7183 1.296 1.581 1.669 2.5324s.544 1.9705.499 2.9917c.024 1.0223-.159 2.0388-.538 2.9886-.378.9498-.945 1.8132-1.666 2.5384-.721.7253-1.581 1.2973-2.529 1.6818-.947.3845-1.963.5736-2.985.5558-4.939 0-7.913-3.5395-7.913-7.5422zm13.408.4632c0-3.7062-1.622-7.62562-5.875-7.62562-2.307 0-5.309 1.58442-5.309 6.48602 0 3.2893 1.603 7.5608 5.985 7.5608 2.669 0 5.208-2.0014 5.208-6.3841M156.363 20.3275c0 2.335 0 2.6222 1.464 2.7797l.603.0649c.064.0781.1.1765.1.278 0 .1015-.036.1998-.1.2779-1.27 0-2.002-.0648-2.891-.0648-.89 0-1.733 0-2.715.0648-.065-.0781-.1-.1764-.1-.2779 0-.1015.035-.1999.1-.278l.463-.0649c1.288-.176 1.334-.4447 1.334-2.7797v-8.2001c0-1.8532 0-2.27011-1.047-2.3813l-.917-.09265c-.039-.03478-.071-.07756-.093-.12548-.021-.04793-.032-.09991-.032-.15249 0-.05259.011-.10457.032-.15249.022-.04793.054-.0907.093-.12548 1.462-.15146 2.932-.21026 4.401-.17605 1.482-.09187 2.961.22886 4.272.92657.559.35567 1.016.84967 1.328 1.43407.311.5844.467 1.2394.451 1.9016.02.7435-.181 1.4762-.577 2.106-.395.6298-.969 1.1285-1.647 1.4335-.964.4358-2.009.6631-3.067.6671-.034-.0259-.062-.0595-.082-.0981-.019-.0386-.029-.0811-.029-.1243 0-.0431.01-.0857.029-.1243.02-.0386.048-.0722.082-.0981 2.4-.4447 3.271-1.8068 3.271-3.7062.043-.4797-.02-.9629-.185-1.4153-.165-.4525-.427-.8631-.769-1.2027-.341-.3396-.753-.5999-1.206-.76238-.454-.16246-.937-.22313-1.417-.17768-1.176 0-1.204.0834-1.204.79686v9.9143l.055-.0649zM165.629 12.322c0-2.33495 0-2.68704-1.334-2.7797h-.556c-.063-.07888-.098-.17692-.098-.27797s.035-.19909.098-.27797c1.093 0 1.797.06486 2.78.06486.982 0 1.621 0 2.585-.06486.065.07814.1.17646.1.27797 0 .10151-.035.19983-.1.27797h-.417c-1.288.12972-1.334.4633-1.334 2.7797v2.5573c0 .417 0 .8432.287.8432.225-.0232.439-.1064.621-.2409.315-.2687.926-.8432 1.13-1.0655l2.4-2.3813c.608-.5884 1.186-1.2069 1.732-1.8532.089-.1015.144-.22761.158-.36133 0-.09266-.093-.15752-.38-.22238l-.602-.12972c-.04-.03478-.071-.07755-.093-.12548-.021-.04792-.033-.0999-.033-.15249 0-.05258.012-.10456.033-.15249.022-.04792.053-.0907.093-.12548.778 0 1.668.06486 2.446.06486.778 0 1.538 0 2.205-.06486.071.07547.11.1748.11.27797 0 .10317-.039.2025-.11.27797-.723.06811-1.425.27912-2.066.62083-1.114.7618-2.156 1.6241-3.113 2.5758l-2.002 1.8532c-.237.1698-.415.4095-.509.6856.072.2651.22.5033.426.6857 2.112 2.4183 3.827 4.429 5.559 6.2451.424.5172 1.032.8494 1.696.9265l.426.0649c.037.0362.067.0795.087.1272.02.0478.03.099.03.1508 0 .0518-.01.103-.03.1507-.02.0478-.05.091-.087.1272-.574 0-1.186-.0648-2.233-.0648-1.047 0-1.686 0-2.715.0648-.084-.0629-.14-.1558-.158-.2593-.017-.1036.007-.2098.066-.2966l.509-.0927c.101.0132.204-.0004.299-.0394.094-.0391.176-.1021.239-.1829-.061-.1937-.169-.369-.315-.5096-.427-.5375-1.001-1.1305-1.854-2.0941l-1.779-2.0014c-1.269-1.4269-1.621-1.8531-2.158-1.8531-.334 0-.38.2872-.38 1.0655v2.8724c0 2.335 0 2.6407 1.288 2.7797l.759.1019c.065.0782.101.1765.101.278 0 .1015-.036.1998-.101.278-1.093 0-1.853-.0649-2.714-.0649-.862 0-1.668 0-2.576.0649-.067-.0774-.103-.176-.103-.278 0-.102.036-.2006.103-.278l.444-.0648c1.177-.1761 1.223-.4448 1.223-2.7797V12.322h-.083zM180.853 12.3683c0-2.3535 0-2.77973-1.353-2.84458h-.556c-.065-.07815-.1-.17647-.1-.27798 0-.1015.035-.19983.1-.27797 1.112 0 1.853.06486 2.78.06486.926 0 1.649 0 2.779-.06486.065.07814.101.17647.101.27797 0 .10151-.036.19983-.101.27798h-.556c-1.315.11118-1.352.49108-1.352 2.84458v7.9129c0 2.3627 0 2.6685 1.352 2.7797l.556.0649c.065.0781.101.1764.101.2779 0 .1015-.036.1999-.101.278-1.112 0-1.853-.0649-2.779-.0649-.927 0-1.603 0-2.715.0649-.065-.0781-.101-.1765-.101-.278 0-.1015.036-.1998.101-.2779l.472-.0649c1.316-.1575 1.353-.4633 1.353-2.7797v-7.9129h.019zM200.088 19.8828c0 .6671 0 3.3171.065 3.8916-.034.0818-.094.15-.172.1936-.077.0436-.166.0603-.254.0473-.269-.3799-.927-1.1582-2.845-3.3542l-5.161-5.8745c-.602-.6856-2.112-2.511-2.576-3.002-.1.4749-.137.9608-.111 1.4454v4.846c0 1.047 0 3.9379.399 4.6328.147.1479.324.2625.519.336.195.0736.403.1043.611.0902l.686.0649c.07.0755.109.1748.109.278 0 .1031-.039.2025-.109.2779-1.001 0-1.779-.0648-2.604-.0648-.825 0-1.538 0-2.316.0648-.071-.0754-.11-.1748-.11-.2779 0-.1032.039-.2025.11-.278l.602-.0649c.187.008.373-.0281.544-.1053.171-.0773.321-.1935.438-.3394.259-1.5111.355-3.0456.287-4.5773v-6.4582c.037-.2867.012-.5779-.073-.8543-.084-.2763-.227-.5315-.418-.7486-.392-.31918-.875-.50714-1.38-.53744h-.38c-.037-.03623-.067-.07948-.087-.12721-.02-.04773-.03-.09898-.03-.15076 0-.05177.01-.10302.03-.15075.02-.04774.05-.09098.087-.12722.926.06486 2.112.06486 2.511.06486.344.0036.687-.01808 1.028-.06486.445 1.13968 3.067 4.06768 3.799 4.89228l2.159 2.4184c1.538 1.7141 2.622 2.9557 3.706 4.0213.096-.2991.127-.6147.093-.9266v-4.7996c0-1.0471 0-3.938-.445-4.63288-.388-.31566-.881-.47434-1.38-.44475h-.38c-.04-.03478-.071-.07756-.093-.12548-.021-.04793-.033-.09991-.033-.15249 0-.05259.012-.10457.033-.15249.022-.04793.053-.0907.093-.12548 1.019 0 1.779.06486 2.622.06486s1.538-.00001 2.289-.06486c.037.03623.066.07948.086.12721.02.04773.03.09898.03.15076 0 .05177-.01.10302-.03.15075-.02.04773-.049.09098-.086.12722h-.315c-.456.00517-.895.16902-1.242.46328-.38.79685-.334 3.55805-.334 4.57725v5.3556h.028zM205.935 24.0153c-1.21.0329-2.408-.2514-3.475-.8246-.36-1.0006-.563-2.0507-.602-3.1133.064-.0784.155-.1291.256-.1412.1-.0121.201.0153.281.0763.297 1.1397 1.223 3.2986 3.827 3.2986.355.0353.713-.0048 1.052-.1178.338-.113.649-.2962.911-.5377.263-.2415.471-.5358.612-.8636.141-.3277.21-.6816.205-1.0382.023-.6421-.14-1.2772-.469-1.8293-.328-.5521-.809-.9978-1.384-1.284l-2.113-1.3806c-.674-.3931-1.24-.9463-1.649-1.6105-.409-.6643-.648-1.4191-.695-2.1977 0-2.1125 1.649-3.8267 4.54-3.8267.698.01208 1.392.10852 2.066.28724.253.07838.515.12202.779.12972.261.88144.395 1.79554.398 2.71484-.071.0729-.165.119-.266.1309-.102.0118-.204-.0115-.29-.066-.099-.7203-.463-1.3775-1.022-1.84223-.56-.46473-1.272-.70333-1.999-.66881-2.177 0-2.649 1.44544-2.649 2.47394.052.581.25 1.1396.573 1.625.324.4855.764.8824 1.28 1.1547l1.779 1.1119c.803.3984 1.484 1.0049 1.973 1.7561.489.7513.767 1.6199.806 2.5154 0 2.4461-1.853 4.1139-4.734 4.1139"/></g></g><defs><clipPath id="clip0_152_4375"><path fill="#fff" transform="translate(.699738)" d="M0 0h210v44H0z"/></clipPath><clipPath id="clip1_152_4375"><path fill="#fff" transform="translate(.699738 2)" d="M0 0h209.97v40H0z"/></clipPath></defs></svg>