<svg width="118" height="22" viewBox="0 0 118 22" fill="none" xmlns="http://www.w3.org/2000/svg">
<g id="g10">
<g id="g12">
<g id="Clip path group">
<mask id="mask0_4074_2145" style="mask-type:luminance" maskUnits="userSpaceOnUse" x="0" y="0" width="118" height="22">
<g id="clipPath18">
<path id="path16" d="M0.708252 0.915977H117.947V21.0841H0.708252V0.915977Z" fill="white"/>
</g>
</mask>
<g mask="url(#mask0_4074_2145)">
<g id="g14">
<g id="g20">
<path id="path22" d="M116.351 18.1852H116.64C116.773 18.1996 116.891 18.1039 116.906 17.9716C116.907 17.9611 116.907 17.9505 116.907 17.9399C116.907 17.7862 116.799 17.6954 116.64 17.6954H116.351V18.1852ZM116.186 18.8458V17.539H116.652C116.868 17.5222 117.057 17.684 117.074 17.9003C117.075 17.9147 117.076 17.9291 117.075 17.9435C117.079 18.1145 116.971 18.268 116.808 18.3212L117.105 18.8494H116.915L116.636 18.3479H116.35V18.8494L116.186 18.8458Z" fill="#183B43"/>
</g>
<g id="g24">
<path id="path26" d="M116.625 17.0564C115.987 17.0564 115.47 17.5738 115.47 18.2121C115.47 18.8503 115.987 19.3677 116.625 19.3677C117.263 19.3677 117.781 18.8503 117.781 18.2121C117.781 17.5738 117.263 17.0564 116.625 17.0564ZM116.625 19.5348C115.895 19.5348 115.302 18.9426 115.302 18.2121C115.302 17.4814 115.895 16.8893 116.625 16.8893C117.356 16.8893 117.948 17.4814 117.948 18.2121C117.947 18.9421 117.355 19.5338 116.625 19.5348Z" fill="#183B43"/>
</g>
<g id="g28">
<path id="path30" d="M29.4216 19.3551V4.49658H23.8685V2.39514H37.1509V4.49658H31.5977V19.3551H29.4216Z" fill="#183B43"/>
</g>
<g id="g32">
<path id="path34" d="M35.1482 19.3551V6.99892H37.1999V8.77679C37.9501 7.6514 39.1511 6.99892 40.977 6.99892H41.777V9.09859H40.777C38.2755 9.09859 37.2746 10.5493 37.2746 12.5503V19.3551H35.1482Z" fill="#183B43"/>
</g>
<g id="g36">
<path id="path38" d="M42.8037 13.9513V6.99723H44.93V13.8517C44.93 16.2029 46.2554 17.604 48.308 17.604C50.3605 17.604 51.6859 16.2029 51.6859 13.8517V6.99723H53.8122V13.9513C53.8122 17.4288 51.5606 19.605 48.3088 19.605C45.0571 19.605 42.8055 17.4288 42.8055 13.9513" fill="#183B43"/>
</g>
<g id="g40">
<path id="path42" d="M56.8889 12.0757H64.7435C64.4937 10.12 62.9923 8.69771 60.8162 8.69771C58.8152 8.69771 57.2889 10.0231 56.8889 12.0757ZM54.6861 13.1762C54.6861 9.5742 57.3627 6.74739 60.8392 6.74739C64.3949 6.74739 66.9187 9.39908 66.9187 13.001C66.9264 13.3021 66.9095 13.6033 66.868 13.9015H56.8373C57.112 16.203 58.7636 17.6537 60.9895 17.6537C62.7158 17.6537 64.0412 16.7781 64.7666 15.4314L66.5178 16.4092C65.3426 18.4111 63.3176 19.6094 60.9895 19.6094C57.4125 19.6094 54.6861 16.7826 54.6861 13.1806" fill="#183B43"/>
</g>
<g id="g44">
<path id="path46" d="M68.0183 19.3551V6.99892H70.07V8.29855C70.8958 7.32072 72.1963 6.74736 73.7723 6.74736C75.6231 6.74736 77.1245 7.5474 77.9245 9.02392C78.8509 7.62304 80.5024 6.74736 82.4279 6.74736C85.4299 6.74736 87.5304 8.84888 87.5304 12.2011V19.3551H85.4041V12.3752C85.4041 10.0995 84.1533 8.74835 82.1524 8.74835C80.1763 8.74835 78.8508 10.1706 78.8508 12.3752V19.3551H76.7244V12.3752C76.7244 10.0995 75.4728 8.74835 73.4719 8.74835C71.4958 8.74835 70.1446 10.1706 70.1446 12.3752V19.3551H68.0183Z" fill="#183B43"/>
</g>
<g id="g48">
<path id="path50" d="M90.6069 12.0801H98.4616C98.2118 10.1245 96.7113 8.70216 94.5343 8.70216C92.5333 8.70216 91.007 10.0276 90.6069 12.0801ZM88.4059 13.1762C88.4059 9.5742 91.0826 6.74739 94.5591 6.74739C98.1149 6.74739 100.639 9.39908 100.639 13.001C100.646 13.3021 100.629 13.6033 100.588 13.9015H90.5572C90.8318 16.203 92.4835 17.6537 94.7094 17.6537C96.4357 17.6537 97.7611 16.7782 98.4873 15.4314L100.238 16.4092C99.0625 18.4111 97.0376 19.6094 94.7094 19.6094C91.1323 19.6094 88.4059 16.7826 88.4059 13.1806" fill="#183B43"/>
</g>
<g id="g52">
<path id="path54" d="M112.27 13.1762C112.27 10.5983 110.444 8.74843 107.943 8.74843C105.442 8.74843 103.616 10.5992 103.616 13.1762C103.616 15.7532 105.442 17.6041 107.943 17.6041C110.444 17.6041 112.269 15.7532 112.269 13.1762M101.489 13.1762C101.489 9.57425 104.166 6.74744 107.793 6.74744C109.644 6.74744 111.245 7.52259 112.246 8.79821V2.39789H114.372V19.3552H112.321V17.4787C111.343 18.8049 109.694 19.605 107.793 19.605C104.166 19.605 101.489 16.7783 101.489 13.1762Z" fill="#183B43"/>
</g>
<g id="g56">
<path id="path58" d="M10.7123 4.62464C9.70488 4.62464 8.88821 5.44131 8.88821 6.44873C8.88821 7.45616 9.70488 8.27283 10.7123 8.27283C11.7197 8.27283 12.5364 7.45616 12.5364 6.44873C12.5354 5.44166 11.7193 4.62562 10.7123 4.62464Z" fill="#183B43"/>
</g>
<g id="g60">
<path id="path62" d="M10.211 11.5307L4.94493 17.0288C3.68442 15.8134 2.83949 14.2312 2.53059 12.5077C2.47165 12.1844 2.43129 11.8579 2.40969 11.5298L10.211 11.5307ZM2.47014 9.84176C2.97452 6.25331 5.72026 3.39112 9.28471 2.73829C9.78793 2.64619 10.2985 2.59979 10.8101 2.59962C14.9947 2.60815 18.5341 5.69684 19.1092 9.84176H2.47014ZM15.2948 18.0963C12.5398 19.8364 9.02807 19.8301 6.27922 18.0804L10.779 13.3824L15.2948 18.0963ZM19.175 11.5307C19.08 13.0534 18.5714 14.5214 17.7038 15.7763C17.3872 16.2335 17.0267 16.6587 16.6273 17.0457L11.3453 11.5343L19.175 11.5307ZM16.5313 2.70273C11.9494 -0.464006 5.66781 0.68334 2.50116 5.26526C-0.665576 9.84727 0.481771 16.1288 5.06369 19.2955C9.6433 22.4605 15.9212 21.3162 19.0896 16.739C22.2535 12.1553 21.1089 5.87534 16.5313 2.70273Z" fill="#183B43"/>
</g>
</g>
</g>
</g>
</g>
</g>
</svg>
